<?xml version="1.0" standalone="no"?><!DOCTYPE svg PUBLIC "-//W3C//DTD SVG 1.1//EN" "http://www.w3.org/Graphics/SVG/1.1/DTD/svg11.dtd" ><svg xmlns="http://www.w3.org/2000/svg"><metadata></metadata><defs><font id="Founder:FZLanTingHeiS-UL-GB	Regular" horiz-adv-x="256"><font-face font-family="FZLanTingHeiS-UL-GB" font-weight="400" font-stretch="normal" units-per-em="256" panose-1="2 0 0 0 0 0 0 0 0 0" ascent="221" descent="-59" x-height="0" bbox="8 -30 246 207" underline-thickness="12" underline-position="-47" unicode-range="U+3002-ff0c" /><missing-glyph horiz-adv-x="256"  /><glyph glyph-name="" unicode="&#x3002;" d="M44 16 Q46 -7 72 -10 Q98 -7 100 16 Q97 41 72 44 Q47 41 44 16 ZM39 16 Q42 46 72 49 Q102 46 105 16 Q102 -11 72 -14 Q42 -11 39 16 Z" /><glyph glyph-name="" unicode="&#x4e0d;" d="M9 41 Q99 99 150 179 L22 179 L22 184 L238 184 L238 179 L156 179 Q105 96 12 37 L9 41 ZM125 122 L130 122 L130 -25 L125 -25 L125 122 ZM155 103 L157 107 Q216 68 246 46 L243 42 Q206 69 155 103 Z" /><glyph glyph-name="" unicode="&#x4e2d;" d="M126 207 L131 207 L131 153 L228 153 L228 42 L223 42 L223 62 L131 62 L131 -26 L126 -26 L126 62 L33 62 L33 41 L28 41 L28 153 L126 153 L126 207 ZM33 148 L33 67 L126 67 L126 148 L33 148 ZM223 148 L131 148 L131 67 L223 67 L223 148 Z" /><glyph glyph-name="" unicode="&#x4eba;" d="M125 205 L130 205 L130 172 L130 167 Q130 60 244 -16 L241 -20 Q139 48 128 137 Q121 49 14 -21 L12 -17 Q132 62 125 172 L125 205 Z" /><glyph glyph-name="" unicode="&#x4eca;" d="M11 103 Q95 149 133 207 L137 204 Q136 202 133 198 Q132 196 131 195 Q172 142 245 104 L243 99 Q171 137 129 191 Q86 138 13 99 L11 103 ZM35 70 L209 70 L209 65 Q181 25 134 -26 L131 -23 Q172 22 204 65 L35 65 L35 70 ZM109 131 L113 134 L146 93 L142 90 L109 131 Z" /><glyph glyph-name="" unicode="&#x4f55;" d="M102 131 L170 131 L170 39 L102 39 L102 131 ZM166 126 L106 126 L106 44 L166 44 L166 126 ZM89 180 L245 180 L245 175 L221 175 L221 11 Q223 -22 182 -20 Q170 -20 154 -20 L155 -15 Q169 -15 182 -15 Q219 -18 216 11 L216 175 L89 175 L89 180 ZM10 78 Q48 127 74 206 L79 205 Q68 172 53 140 L53 -24 L48 -24 L48 130 Q31 98 14 75 L10 78 Z" /><glyph glyph-name="" unicode="&#x4f9d;" d="M78 157 L243 157 L243 153 L160 153 L156 143 Q165 100 180 70 Q205 88 231 110 L234 107 Q212 86 183 65 Q205 21 246 -2 L243 -6 Q176 33 152 135 Q139 107 120 84 L120 -13 Q127 -9 165 9 Q167 10 167 10 L169 6 L121 -18 Q120 -17 115 -25 L111 -22 Q116 -15 115 -14 L115 78 Q94 51 66 31 L63 35 Q126 83 154 153 L78 153 L78 157 ZM10 77 Q45 127 68 205 L73 204 Q64 174 52 144 L52 -25 L47 -25 L47 133 Q31 98 14 74 L10 77 ZM144 205 L149 207 Q150 205 152 200 Q163 176 168 166 L163 164 Q155 185 144 205 Z" /><glyph glyph-name="" unicode="&#x53bb;" d="M125 206 L130 206 L130 156 L224 156 L224 151 L130 151 L130 89 L246 89 L246 84 L10 84 L10 89 L125 89 L125 151 L32 151 L32 156 L125 156 L125 206 ZM161 51 L165 54 L235 -20 L231 -23 L215 -5 Q99 -7 36 -10 L22 -12 L22 -7 L31 -5 Q79 33 113 83 L117 80 Q81 30 39 -5 Q51 -4 135 -2 Q198 0 210 0 L161 51 Z" /><glyph glyph-name="" unicode="&#x5904;" d="M8 75 Q42 133 58 203 L63 202 Q59 181 51 160 L121 160 L121 155 Q110 83 78 40 Q117 -12 244 -10 L244 -15 Q116 -17 75 36 Q58 13 14 -23 L11 -19 Q50 10 72 40 Q50 68 38 123 Q26 96 12 73 L8 75 ZM116 155 L50 155 Q46 143 41 132 Q53 74 75 44 Q104 84 116 155 ZM165 206 L170 206 L170 5 L165 5 L165 206 ZM173 132 L176 136 L243 85 L241 81 L173 132 Z" /><glyph glyph-name="" unicode="&#x5e74;" d="M10 42 L51 42 L51 113 L140 113 L140 168 L64 168 Q44 138 21 114 L17 117 Q57 160 80 207 L84 205 Q76 190 67 173 L238 173 L238 168 L145 168 L145 113 L231 113 L231 108 L145 108 L145 42 L246 42 L246 37 L145 37 L145 -26 L140 -26 L140 37 L10 37 L10 42 ZM56 108 L56 42 L140 42 L140 108 L56 108 Z" /><glyph glyph-name="" unicode="&#x65e5;" d="M44 183 L212 183 L212 -23 L207 -23 L207 1 L49 1 L49 -24 L44 -24 L44 183 ZM49 91 L49 6 L207 6 L207 91 L49 91 ZM49 178 L49 96 L207 96 L207 178 L49 178 Z" /><glyph glyph-name="" unicode="&#x65e7;" d="M91 183 L226 183 L226 -23 L221 -23 L221 1 L96 1 L96 -24 L91 -24 L91 183 ZM96 91 L96 6 L221 6 L221 91 L96 91 ZM96 178 L96 96 L221 96 L221 178 L96 178 ZM33 199 L38 199 L38 -25 L33 -25 L33 199 Z" /><glyph glyph-name="" unicode="&#x6620;" d="M168 207 L173 207 L173 161 L226 161 L226 75 L245 75 L245 70 L174 70 Q187 14 244 -19 L242 -23 Q186 8 171 62 Q160 10 92 -25 L90 -21 Q160 16 167 70 L95 70 L95 75 L116 75 L116 161 L168 161 L168 207 ZM26 -7 L26 178 L81 178 L81 -3 L77 -3 L77 18 L31 18 L31 -7 L26 -7 ZM221 156 L173 156 L173 80 Q173 78 173 75 L221 75 L221 156 ZM121 156 L121 75 L168 75 Q168 78 168 80 L168 156 L121 156 ZM31 173 L31 100 L77 100 L77 173 L31 173 ZM31 95 L31 23 L77 23 L77 95 L31 95 Z" /><glyph glyph-name="" unicode="&#x6625;" d="M35 142 L113 142 Q118 156 121 172 L24 172 L24 177 L122 177 Q125 191 127 207 L132 206 Q130 191 127 177 L232 177 L232 172 L126 172 Q123 156 118 142 L220 142 L220 137 L116 137 Q110 121 100 108 L243 108 L243 103 L164 103 Q194 64 245 47 L243 42 Q217 51 196 66 L196 -25 L191 -25 L191 -8 L65 -8 L65 -25 L60 -25 L60 67 Q40 52 13 38 L10 42 Q65 69 91 103 L13 103 L13 108 L95 108 Q104 121 111 137 L35 137 L35 142 ZM65 65 L65 32 L191 32 L191 65 L65 65 ZM65 27 L65 -3 L191 -3 L191 27 L65 27 ZM158 103 L97 103 Q84 85 63 70 L191 70 Q172 84 158 103 Z" /><glyph glyph-name="" unicode="&#x6843;" d="M15 153 L50 153 L50 207 L55 207 L55 153 L87 153 L87 148 L55 148 L55 -25 L50 -25 L50 129 Q38 83 15 42 L11 45 Q37 92 49 148 L15 148 L15 153 ZM178 204 L183 204 L183 95 L239 56 L236 52 L183 89 L183 10 Q183 -11 202 -11 L214 -11 Q237 -12 238 9 Q240 23 240 34 L245 34 Q245 23 243 9 Q241 -17 214 -16 L202 -16 Q178 -16 178 10 L178 204 ZM82 53 L135 94 L135 205 L140 205 L140 104 Q141 51 130 27 Q119 2 83 -26 L80 -22 Q112 3 123 25 Q134 46 135 88 L85 49 L82 53 ZM193 113 Q205 130 226 167 L230 165 Q221 146 197 110 L193 113 ZM89 165 L93 167 L124 112 L120 109 L89 165 ZM56 109 L60 112 L87 78 L83 75 L56 109 Z" /><glyph glyph-name="" unicode="&#x6b64;" d="M91 206 L96 206 L96 122 L140 122 L140 117 L96 117 L96 16 L143 27 L144 23 L13 -6 L12 -2 L41 3 L41 155 L46 155 L46 4 L91 15 L91 206 ZM157 206 L162 206 L162 95 Q208 125 238 155 L241 151 Q203 116 162 90 L162 15 Q161 -9 188 -8 L205 -8 Q235 -9 237 15 Q239 31 239 46 L244 46 Q244 42 243 30 Q243 18 242 14 Q239 -14 205 -13 L188 -13 Q155 -14 157 15 L157 206 Z" /><glyph glyph-name="" unicode="&#x76f8;" d="M114 186 L229 186 L229 -23 L224 -23 L224 -3 L119 -3 L119 -24 L114 -24 L114 186 ZM119 181 L119 123 L224 123 L224 181 L119 181 ZM119 119 L119 61 L224 61 L224 119 L119 119 ZM119 56 L119 0 L224 0 L224 56 L119 56 ZM15 153 L55 153 L55 207 L60 207 L60 153 L100 153 L100 147 L60 147 L60 -25 L55 -25 L55 131 Q42 84 15 42 L11 45 Q42 93 54 147 L15 147 L15 153 ZM65 106 L68 110 L99 79 L95 76 L65 106 Z" /><glyph glyph-name="" unicode="&#x77e5;" d="M143 173 L226 173 L226 -14 L221 -14 L221 9 L148 9 L148 -14 L143 -14 L143 173 ZM148 168 L148 14 L221 14 L221 168 L148 168 ZM17 126 Q39 166 51 207 L56 205 Q50 183 41 165 L116 165 L116 160 L73 160 Q73 116 72 99 L122 99 L122 94 L72 94 Q72 23 15 -22 L12 -18 Q66 24 68 94 L11 94 L11 99 L68 99 Q68 109 69 141 Q69 157 69 160 L39 160 Q32 140 21 123 L17 126 ZM71 56 L75 59 L122 3 L118 0 Q110 10 85 39 Q74 52 71 56 Z" /><glyph glyph-name="" unicode="&#x7b11;" d="M19 65 L125 65 L127 108 Q74 105 34 105 L34 110 Q99 110 221 117 L221 112 Q212 112 191 111 Q152 109 132 108 L130 65 L241 65 L241 60 L131 60 Q151 4 243 -19 L242 -24 Q154 0 128 52 Q114 2 13 -25 L12 -20 Q116 7 125 60 L19 60 L19 65 ZM124 129 Q153 166 169 207 L174 206 Q172 202 169 194 Q167 190 160 175 L245 175 L245 170 L157 170 Q143 146 128 126 L124 129 ZM15 131 Q45 164 64 207 L69 205 Q63 192 54 175 L133 175 L133 170 L50 170 Q36 147 18 127 L15 131 ZM172 157 L176 161 L203 131 L199 128 L172 157 ZM66 157 L69 161 L93 133 L90 130 L66 157 Z" /><glyph glyph-name="" unicode="&#x7ea2;" d="M109 177 L236 177 L236 173 L176 173 L176 0 L246 0 L246 -5 L95 -5 L95 0 L170 0 L170 173 L109 173 L109 177 ZM24 56 Q38 70 72 116 L19 114 Q18 113 14 112 Q15 113 12 112 L11 117 Q12 117 13 118 Q15 118 16 119 Q45 154 71 207 L76 205 Q51 157 22 119 Q31 119 66 121 Q74 121 75 121 L75 120 Q91 142 96 152 L100 150 Q71 102 30 56 L97 60 L97 56 L28 51 Q26 51 20 49 L19 54 Q21 55 23 56 Q24 56 24 56 ZM10 0 L105 18 L106 13 L11 -4 L10 0 Z" /><glyph glyph-name="" unicode="&#x82b1;" d="M86 34 Q116 46 142 59 L142 130 L146 130 L146 61 Q193 87 227 118 L231 114 Q193 78 146 56 L146 21 Q145 -11 173 -9 L205 -9 Q234 -10 236 14 Q237 18 238 31 Q239 43 239 47 L243 47 L241 13 Q239 -14 205 -14 L173 -14 Q141 -15 142 21 L142 53 Q117 41 87 29 L86 34 ZM12 170 L81 170 L81 207 L86 207 L86 170 L168 170 L168 207 L173 207 L173 170 L244 170 L244 165 L173 165 L173 134 L168 134 L168 165 L86 165 L86 140 L81 140 L81 165 L12 165 L12 170 ZM10 47 Q60 82 92 134 L97 131 Q96 130 94 127 Q83 110 68 93 L68 -24 L63 -24 L63 87 Q43 64 13 43 L10 47 Z" /><glyph glyph-name="" unicode="&#x95e8;" d="M98 182 L225 182 L225 15 Q227 -19 191 -17 Q175 -17 155 -17 L155 -12 Q161 -12 175 -13 Q187 -13 191 -13 Q223 -16 220 15 L220 177 L98 177 L98 182 ZM37 202 L41 206 L80 165 L76 162 L37 202 ZM32 160 L37 160 L37 -22 L32 -22 L32 160 Z" /><glyph glyph-name="" unicode="&#x9762;" d="M13 186 L243 186 L243 181 L127 181 Q121 164 110 138 L225 138 L225 -25 L220 -25 L220 -7 L35 -7 L35 -25 L30 -25 L30 138 L105 138 Q115 160 122 181 L13 181 L13 186 ZM220 133 L169 133 L169 -2 L220 -2 L220 133 ZM35 133 L35 -2 L87 -2 L87 133 L35 133 ZM91 38 L91 -2 L164 -2 L164 38 L91 38 ZM91 86 L91 43 L164 43 L164 86 L91 86 ZM91 133 L91 91 L164 91 L164 133 L91 133 Z" /><glyph glyph-name="" unicode="&#x98ce;" d="M40 112 L40 186 L205 186 L205 81 Q205 17 213 -6 Q218 -18 225 -18 Q232 -19 235 -4 Q239 12 241 34 L246 34 Q243 10 240 -5 Q236 -24 225 -23 Q214 -23 209 -7 Q200 14 200 81 L200 181 L45 181 L45 112 Q45 56 39 29 Q33 3 14 -25 L10 -23 Q29 5 34 31 Q40 57 40 112 ZM55 5 Q82 31 121 82 Q96 115 68 151 L72 154 Q83 141 123 86 Q153 126 171 158 L176 156 Q153 116 126 81 Q151 49 181 6 L177 3 Q159 31 124 78 Q88 31 58 2 L55 5 Z" /><glyph glyph-name="" unicode="&#xff0c;" d="M52 50 L55 54 L84 32 Q86 -3 49 -30 L46 -26 Q80 0 79 29 L52 50 Z" /></font>
</defs>
</svg>
