<?xml version="1.0" standalone="no"?><!DOCTYPE svg PUBLIC "-//W3C//DTD SVG 1.1//EN" "http://www.w3.org/Graphics/SVG/1.1/DTD/svg11.dtd" ><svg xmlns="http://www.w3.org/2000/svg"><metadata></metadata><defs><font id="LiSu" horiz-adv-x="256"><font-face font-family="LiSu" font-weight="400" font-stretch="normal" units-per-em="256" panose-1="2 1 5 9 6 1 1 1 1 1" ascent="220" descent="-36" x-height="1" bbox="0 -44 256 190" underline-thickness="13" underline-position="-59" unicode-range="U+3002-ff0c" /><missing-glyph horiz-adv-x="256"  /><glyph glyph-name="" unicode="&#x3002;" d="M36 46 Q72 54 82 24 Q88 -10 56 -20 Q24 -26 14 6 Q10 36 36 46 ZM32 32 Q18 16 28 -2 Q44 -20 64 -6 Q78 6 70 26 Q56 46 32 32 Z" /><glyph glyph-name="" unicode="&#x4e00;" d="M26 66 Q12 62 16 78 Q30 106 46 102 Q68 98 98 98 Q242 98 248 96 Q226 54 210 64 Q176 76 98 80 Q52 80 26 66 Z" /><glyph glyph-name="" unicode="&#x4e07;" d="M106 128 Q50 128 22 118 Q16 116 10 118 Q6 120 8 128 Q20 144 26 146 Q32 150 46 142 Q58 142 108 146 Q132 146 158 144 Q252 142 252 138 Q248 130 244 124 Q230 106 218 112 Q206 114 194 118 Q172 126 132 126 L126 114 Q122 106 130 108 Q146 106 166 102 Q172 102 178 104 Q186 102 190 90 Q190 82 188 74 Q186 60 172 28 Q152 -2 122 6 Q96 16 88 36 Q90 40 98 34 Q110 26 126 26 Q148 24 160 60 Q166 76 162 84 Q152 90 124 92 Q114 88 104 72 Q68 26 28 18 Q18 16 8 24 Q4 30 8 32 Q40 44 72 70 Q100 98 106 128 Z" /><glyph glyph-name="" unicode="&#x4e09;" d="M46 124 Q34 124 36 136 Q40 152 58 152 Q116 140 194 146 Q206 144 204 134 Q202 128 194 126 Q108 132 46 124 ZM64 98 Q122 92 188 98 Q194 96 196 90 Q194 82 188 80 Q102 86 60 74 Q48 70 48 82 Q50 94 64 98 ZM118 50 Q160 48 212 46 Q248 44 248 38 Q246 32 238 22 Q226 8 206 12 Q166 30 94 32 Q56 32 28 22 Q12 12 8 24 Q10 42 26 48 Q64 46 118 50 Z" /><glyph glyph-name="" unicode="&#x4e0a;" d="M250 40 Q252 34 226 12 Q218 2 200 10 Q182 16 166 20 Q128 28 88 26 Q56 24 22 14 Q8 10 8 22 Q14 42 26 46 Q32 46 48 44 Q70 40 96 44 Q104 46 102 70 L102 136 Q102 162 116 162 Q136 160 130 132 Q128 118 136 118 L182 118 Q196 118 196 108 Q198 96 172 98 L136 98 Q130 96 130 88 Q126 50 132 46 Q218 44 250 40 Z" /><glyph glyph-name="" unicode="&#x4e0b;" d="M246 144 Q234 112 214 116 Q174 128 134 128 L134 114 Q164 96 186 78 Q196 68 202 62 Q202 50 194 52 Q178 62 160 72 L134 86 L134 32 Q136 2 122 2 Q100 0 104 24 Q116 72 108 130 Q58 132 18 118 Q6 114 6 128 Q14 150 26 148 Q84 144 144 148 Q198 146 246 144 Z" /><glyph glyph-name="" unicode="&#x4e0d;" d="M46 138 Q58 156 68 154 Q116 150 202 150 Q208 150 216 146 Q220 138 210 136 L154 136 Q146 120 142 104 L142 18 Q144 0 122 0 Q114 0 114 12 Q118 46 114 64 Q112 74 80 50 Q40 24 16 32 Q4 40 10 44 Q48 52 92 84 Q118 106 124 136 Q78 138 56 130 Q44 128 46 138 ZM154 106 Q166 108 174 98 Q218 62 250 44 Q248 36 238 30 Q216 18 202 36 Q176 72 150 96 Q142 100 154 106 Z" /><glyph glyph-name="" unicode="&#x4e0e;" d="M72 162 Q78 168 88 160 Q94 152 92 140 L164 140 Q218 136 248 136 Q250 130 240 120 Q226 106 212 112 Q172 124 90 122 Q84 112 88 106 Q100 94 178 102 Q190 104 196 104 Q200 104 206 102 Q214 98 218 86 Q220 74 214 52 Q208 32 204 24 Q192 6 176 4 Q166 2 152 8 Q134 16 124 28 Q124 32 126 32 Q134 26 148 24 Q176 20 186 46 Q190 58 190 68 Q192 80 182 84 Q164 86 94 84 Q82 82 72 78 Q66 76 60 82 Q52 92 54 98 Q56 104 58 108 Q64 120 64 134 L64 152 Q66 160 72 162 ZM38 66 Q66 62 158 64 Q168 60 166 56 Q166 48 156 48 Q88 50 34 46 Q26 46 14 42 Q4 40 6 50 Q10 58 18 64 Q26 70 38 66 Z" /><glyph glyph-name="" unicode="&#x4e14;" d="M94 112 L152 112 L152 126 Q154 138 118 138 Q102 138 94 132 L94 112 ZM94 78 L152 78 L152 100 L94 100 L94 78 ZM94 42 L152 42 L152 66 L94 66 L94 42 ZM78 154 Q88 152 92 150 L150 150 Q156 152 162 154 Q168 156 174 150 Q182 140 180 136 Q176 114 174 72 L174 40 Q236 38 250 36 Q236 0 214 8 Q164 24 86 26 Q46 24 18 12 Q10 10 10 20 Q16 38 30 40 Q36 40 46 38 Q62 38 72 42 L72 90 Q70 114 66 140 Q64 156 78 154 Z" /><glyph glyph-name="" unicode="&#x4e1a;" d="M102 154 Q114 154 112 134 L112 46 L132 46 L132 146 Q134 160 150 156 Q160 152 158 136 Q156 122 156 46 Q216 44 252 42 Q238 14 220 8 Q212 6 200 10 Q168 24 116 26 Q54 28 18 12 Q8 10 8 18 Q10 42 34 44 L88 46 L88 132 Q86 144 90 150 Q94 156 102 154 ZM42 128 Q50 130 54 124 Q66 90 84 62 Q82 56 76 58 Q40 80 34 112 Q32 124 42 128 ZM204 122 Q220 110 210 96 Q192 72 164 60 Q160 58 158 62 Q182 90 194 120 Q196 124 204 122 Z" /><glyph glyph-name="" unicode="&#x4e1c;" d="M214 138 Q220 136 222 132 Q222 124 206 124 L126 124 Q114 114 104 104 Q92 94 98 92 Q110 92 120 94 Q120 98 120 106 Q122 114 132 116 Q146 116 150 106 Q148 100 148 92 L196 92 Q202 92 202 88 Q204 82 196 80 L148 80 L148 30 Q148 20 142 12 Q132 2 112 8 Q94 14 84 30 Q82 34 86 36 Q96 30 106 26 Q122 22 122 32 L122 80 Q90 82 72 74 Q62 70 60 78 Q54 90 66 98 Q82 106 96 124 Q70 126 54 118 Q42 110 40 120 Q42 140 58 140 Q72 134 104 138 Q108 144 118 160 Q122 162 126 162 Q138 160 140 150 Q140 146 134 138 L214 138 ZM106 54 Q78 34 50 22 Q32 16 16 14 Q10 14 12 20 Q32 28 60 46 Q80 58 96 74 Q100 74 104 72 Q114 62 106 54 ZM178 68 Q192 54 218 36 Q234 28 248 20 Q252 16 246 14 Q232 14 202 28 Q186 36 170 48 Q154 58 160 68 Q168 78 178 68 Z" /><glyph glyph-name="" unicode="&#x4e1d;" d="M168 160 Q172 164 182 156 Q190 150 180 138 Q162 128 148 112 Q148 110 154 108 Q162 108 172 106 Q186 116 200 132 Q206 138 214 124 Q216 118 200 106 Q178 94 160 78 Q160 74 180 74 Q194 74 208 76 Q216 74 212 66 Q206 62 202 62 Q160 60 144 54 Q134 52 128 64 Q128 66 128 70 Q132 74 138 80 Q152 90 162 98 Q148 96 136 94 Q134 92 126 102 Q122 108 128 112 Q148 128 168 160 ZM82 154 Q90 166 104 156 Q114 146 100 140 Q80 128 62 112 Q58 104 80 106 L86 106 Q100 118 110 132 Q118 136 124 126 Q128 118 116 110 Q94 94 78 76 Q76 70 98 74 Q108 76 120 78 Q126 76 126 72 Q124 68 116 64 Q90 60 66 50 Q52 46 48 58 Q42 70 54 76 Q66 84 76 94 Q62 96 50 90 Q44 88 38 104 Q36 110 50 120 Q66 130 82 154 ZM8 22 Q18 42 36 40 Q94 38 186 40 Q252 38 252 34 Q246 26 240 18 Q224 4 210 8 Q198 12 186 16 Q128 30 54 20 Q40 16 24 10 Q20 10 16 10 Q6 12 8 22 Z" /><glyph glyph-name="" unicode="&#x4e24;" d="M94 100 L78 100 Q72 100 70 92 Q70 68 68 50 Q78 58 88 70 Q94 84 94 100 ZM140 114 L140 134 L114 134 Q112 126 112 114 L140 114 ZM140 100 L112 100 Q112 88 108 78 Q124 74 132 66 Q142 80 140 100 ZM110 62 L104 68 Q96 54 90 46 Q74 36 66 42 Q62 16 38 8 Q30 6 22 12 Q10 24 14 26 Q48 36 52 74 Q52 92 48 106 Q50 118 62 118 Q70 112 94 114 L94 134 Q40 132 16 122 Q6 120 8 128 Q16 152 36 150 L166 150 Q252 148 252 146 Q254 142 236 122 Q228 118 222 120 Q194 130 160 134 L160 114 Q170 112 188 112 Q192 114 198 118 Q206 118 216 102 Q214 90 214 60 Q214 40 216 18 Q216 10 200 4 Q192 2 190 8 L190 94 Q186 100 180 100 L160 100 Q158 88 156 80 Q164 76 166 72 Q176 62 186 48 Q188 40 182 40 Q166 48 150 62 Q142 52 134 42 Q110 30 108 40 L126 58 Q118 58 110 62 Z" /><glyph glyph-name="" unicode="&#x4e2a;" d="M132 156 Q134 150 128 144 Q198 116 246 106 Q226 66 204 80 Q194 88 184 94 Q150 116 118 132 Q86 108 48 92 Q28 82 18 86 Q10 88 2 100 Q0 104 6 106 Q12 106 38 112 Q50 116 64 124 Q74 130 86 138 Q96 146 104 154 Q110 160 116 164 Q122 168 132 156 ZM132 104 L132 14 Q134 2 118 0 Q106 -2 104 10 L104 84 Q104 94 102 102 Q102 112 110 114 Q132 114 132 104 Z" /><glyph glyph-name="" unicode="&#x4e2d;" d="M110 68 Q74 68 58 64 Q50 60 42 58 Q36 56 34 66 Q32 80 30 100 Q28 108 28 116 Q28 134 44 132 Q54 130 68 126 Q86 130 110 126 L110 156 Q112 166 124 164 Q140 162 138 128 Q154 130 170 126 Q184 126 192 128 Q208 136 218 128 Q226 122 224 116 Q220 96 222 76 Q222 70 218 64 Q210 56 196 62 Q180 68 136 68 Q138 32 136 14 Q136 6 124 2 Q110 -4 108 12 Q108 36 110 68 ZM110 112 Q84 114 60 110 Q54 108 52 98 Q52 82 60 82 Q92 80 110 82 L110 112 ZM190 82 Q198 84 198 90 Q204 104 192 110 Q176 114 136 112 L136 82 Q174 80 190 82 Z" /><glyph glyph-name="" unicode="&#x4e34;" d="M88 150 Q86 132 86 102 Q112 116 124 148 Q126 156 130 162 Q134 168 144 162 Q148 160 154 154 Q154 146 148 140 Q174 138 194 138 Q250 136 250 134 Q248 124 234 112 Q224 106 218 110 Q178 122 138 124 Q128 110 112 100 Q96 92 86 94 L86 42 Q88 20 82 12 Q76 8 72 8 Q62 10 62 20 Q64 36 64 58 L64 134 Q64 142 62 148 Q64 156 72 158 Q84 158 88 150 ZM154 32 L154 64 L136 64 Q128 62 128 54 L128 38 Q130 32 154 32 ZM202 50 Q202 64 194 64 L176 64 L176 32 L194 32 Q202 34 202 50 ZM44 128 L44 52 Q44 36 32 34 Q22 36 22 48 Q24 60 24 72 L24 100 Q24 122 20 132 Q20 140 28 140 Q42 138 44 128 ZM162 110 Q172 100 182 90 Q184 88 180 86 Q150 88 142 98 Q136 106 150 114 Q158 116 162 110 ZM128 82 Q150 80 196 80 Q200 80 210 84 Q224 84 226 72 Q226 42 222 14 Q216 6 208 8 Q198 10 188 12 L138 12 Q130 10 122 8 Q114 6 112 12 Q108 34 106 66 Q106 84 116 84 Q120 84 128 82 Z" /><glyph glyph-name="" unicode="&#x4e3a;" d="M168 118 Q200 112 212 118 Q232 118 230 100 Q226 88 224 74 Q220 54 214 36 Q204 4 170 4 Q126 8 114 34 Q112 40 124 34 Q156 20 174 26 Q190 30 196 56 Q200 72 202 88 Q204 102 194 102 Q184 104 154 104 Q138 88 124 76 Q104 60 86 46 Q66 32 56 24 Q36 12 20 18 Q6 24 10 30 Q16 34 40 42 Q56 50 74 60 Q88 68 106 82 Q118 92 132 104 Q78 102 50 92 Q38 92 42 108 Q50 120 64 120 Q92 114 142 118 Q160 132 172 158 Q178 164 188 158 Q196 152 192 142 Q182 128 168 118 ZM102 150 Q108 138 118 128 Q122 124 110 124 Q98 124 86 132 Q80 138 80 146 Q82 154 90 156 Q96 156 102 150 ZM150 78 Q160 66 176 52 Q176 48 162 50 Q140 52 132 68 Q130 76 140 80 Q148 82 150 78 Z" /><glyph glyph-name="" unicode="&#x4e3b;" d="M66 124 Q70 122 74 120 L168 120 Q206 120 208 114 Q210 104 196 104 L142 104 Q138 90 142 80 Q182 80 198 78 Q206 68 194 66 L142 66 Q140 52 142 42 Q200 36 250 36 Q252 28 238 14 Q224 0 212 6 Q182 18 128 22 Q102 22 78 20 Q60 18 42 16 Q28 12 18 8 Q10 6 8 16 Q18 44 40 40 Q52 38 56 38 Q90 36 114 40 Q116 50 114 66 Q98 66 88 64 Q76 62 64 60 Q54 60 58 72 Q68 82 76 82 Q80 82 84 80 Q102 78 114 80 Q116 92 114 104 L84 104 Q70 102 54 98 Q42 94 44 108 Q46 114 50 118 Q58 124 66 124 ZM124 160 Q130 156 136 152 L158 140 Q160 134 150 132 Q134 130 118 134 Q96 142 102 158 Q110 168 124 160 Z" /><glyph glyph-name="" unicode="&#x4e45;" d="M122 162 Q140 154 128 142 Q136 138 150 140 Q162 144 170 140 Q176 136 176 128 Q174 120 164 112 L142 90 Q162 78 178 68 Q218 42 248 38 Q248 32 238 20 Q230 10 224 6 Q210 -2 198 10 Q184 30 154 56 L132 74 Q102 50 84 36 Q68 26 54 18 Q30 6 12 14 Q4 18 10 24 Q16 28 28 32 Q48 42 70 54 Q88 66 102 78 Q120 92 134 112 Q138 118 134 122 Q128 128 116 128 Q106 120 82 104 Q66 94 54 92 Q44 90 38 96 Q36 100 40 102 Q54 110 68 116 Q84 126 92 134 Q104 144 108 152 Q114 162 122 162 Z" /><glyph glyph-name="" unicode="&#x4e49;" d="M188 122 Q172 102 156 76 Q192 54 232 40 Q250 34 250 30 Q248 24 228 12 Q206 0 192 12 Q166 34 140 58 Q102 26 60 14 Q38 8 20 22 Q8 36 16 36 Q80 34 124 72 Q86 108 62 116 Q50 118 58 128 Q70 136 80 130 Q108 106 138 88 Q160 116 164 140 Q166 146 178 144 Q196 136 188 122 ZM118 158 Q132 146 146 128 Q146 126 144 124 Q128 124 108 134 Q92 146 104 156 Q110 162 118 158 Z" /><glyph glyph-name="" unicode="&#x4e4b;" d="M142 136 Q122 130 108 136 Q94 146 100 156 Q108 166 118 160 Q124 154 132 148 Q138 144 144 142 Q152 138 142 136 ZM250 42 Q244 24 230 12 Q216 2 206 6 Q196 8 182 14 Q150 28 124 38 Q102 46 56 56 Q40 56 22 46 Q16 40 12 50 Q12 56 14 62 Q18 70 30 70 Q42 72 52 72 Q100 84 120 92 Q136 100 152 108 Q156 110 148 112 Q140 114 124 112 Q78 108 48 100 Q36 98 38 106 Q42 122 54 124 Q70 120 88 122 Q126 126 164 124 Q178 126 188 130 Q198 130 202 122 Q204 110 192 104 Q172 98 152 90 Q130 80 110 76 Q88 70 72 66 Q152 48 186 44 Q228 40 250 42 Z" /><glyph glyph-name="" unicode="&#x4e50;" d="M70 134 Q64 102 74 100 Q108 100 116 102 L116 124 Q118 128 122 130 Q132 130 140 120 Q142 116 142 102 Q152 100 168 100 Q196 98 224 96 Q230 92 226 84 Q222 78 188 80 Q164 82 142 84 L142 30 Q142 20 134 10 Q124 2 112 4 Q84 12 82 28 Q82 30 96 24 Q116 20 118 50 Q118 68 116 84 L98 84 Q74 84 46 76 Q42 76 36 80 Q28 88 36 96 Q44 112 46 128 Q44 136 44 144 Q44 148 48 152 Q54 156 62 156 Q68 152 76 148 Q108 150 142 154 Q156 156 174 160 Q182 164 188 156 Q194 140 186 140 Q170 136 152 136 Q102 134 70 134 ZM166 72 Q172 70 178 66 Q194 58 212 50 Q248 36 248 34 Q250 30 238 18 Q228 10 222 12 Q206 18 176 46 Q164 56 154 62 Q152 64 154 68 Q158 72 166 72 ZM94 74 Q104 68 98 58 Q92 50 78 42 Q66 36 52 30 Q36 24 26 22 Q8 22 8 28 Q12 32 22 36 Q50 48 72 64 Q86 74 94 74 Z" /><glyph glyph-name="" unicode="&#x4e56;" d="M168 162 Q174 164 186 158 Q198 152 194 146 Q188 142 176 142 Q154 140 138 138 L138 126 Q226 126 250 122 Q234 92 216 102 Q194 112 138 112 L138 16 Q136 4 122 2 Q114 2 114 8 L114 112 Q48 110 16 100 Q4 98 10 112 Q24 128 36 128 Q52 122 114 126 L114 136 Q80 136 52 140 Q38 148 50 152 Q114 152 168 162 ZM92 100 Q98 98 100 88 L100 44 Q98 30 80 38 Q60 38 34 34 Q22 34 28 50 Q28 54 80 54 Q84 54 82 76 Q66 76 48 72 Q40 70 40 78 Q40 86 48 88 L82 88 Q82 104 92 100 ZM160 100 Q172 98 168 80 Q180 84 196 94 Q204 96 208 86 Q210 76 200 74 Q182 72 168 68 Q166 52 190 52 Q204 52 218 56 Q224 56 222 48 Q220 34 190 32 Q178 32 166 36 Q148 44 148 66 Q150 80 152 94 Q154 100 160 100 Z" /><glyph glyph-name="" unicode="&#x4e5f;" d="M26 104 Q40 104 66 108 Q68 124 70 140 Q80 148 90 138 Q94 132 88 114 Q104 116 118 122 Q120 136 120 142 Q118 154 124 160 Q130 164 138 160 Q146 154 146 144 Q144 132 144 126 Q158 126 174 130 Q178 134 182 136 Q190 138 202 128 Q208 120 206 114 Q198 106 192 82 Q184 58 166 58 Q150 62 152 68 Q160 70 166 76 Q180 88 178 110 Q180 118 142 110 Q144 84 144 56 Q142 48 132 46 Q124 48 120 54 L120 102 Q122 110 86 98 Q84 88 84 76 Q88 52 104 44 Q126 36 148 36 Q218 34 250 68 Q252 66 248 50 Q240 26 222 10 Q210 2 196 4 Q126 8 84 28 Q68 40 62 60 Q60 72 64 90 Q40 84 18 66 Q10 64 10 72 Q10 100 26 104 Z" /><glyph glyph-name="" unicode="&#x4e61;" d="M136 162 Q144 166 150 154 Q154 150 146 146 Q130 136 108 124 Q92 114 100 112 Q122 108 132 108 Q150 120 158 130 Q166 138 172 144 Q178 150 186 144 Q198 128 178 118 Q160 108 136 94 Q118 84 118 80 Q180 78 182 82 Q194 94 204 110 Q208 118 218 112 Q228 106 222 90 Q188 40 142 22 Q82 0 28 12 Q12 18 10 22 Q10 30 28 28 Q116 18 168 66 Q150 68 122 66 Q112 66 96 64 Q86 62 76 58 Q64 54 60 68 Q60 74 64 76 Q74 78 82 80 Q102 86 116 96 Q100 102 80 98 Q70 96 58 94 Q48 90 44 100 Q42 106 48 110 Q60 114 78 122 Q106 136 124 156 Q128 160 136 162 Z" /><glyph glyph-name="" unicode="&#x4e70;" d="M28 76 Q38 72 48 72 Q84 74 120 78 Q128 104 124 128 Q128 134 136 136 Q148 134 148 122 Q148 100 142 78 Q228 74 252 70 Q250 60 238 46 Q228 36 212 46 Q174 60 136 62 Q126 40 108 24 Q72 0 44 8 Q38 10 34 14 Q34 18 48 20 Q90 28 114 62 Q68 62 18 50 Q10 48 14 62 Q18 74 28 76 ZM60 156 Q74 150 130 154 Q186 152 194 156 Q202 162 212 146 Q214 142 214 130 Q214 116 210 102 Q204 92 198 94 Q194 94 192 100 Q194 116 190 134 Q190 140 164 140 L110 140 Q74 140 44 128 Q30 124 34 136 Q44 156 60 156 ZM90 128 Q118 112 118 108 Q116 104 100 106 Q84 106 70 112 Q62 116 68 128 Q72 136 90 128 ZM48 104 Q62 102 82 96 Q98 92 98 90 Q100 88 96 86 Q72 80 46 86 Q32 96 48 104 ZM160 52 Q194 34 224 8 Q228 4 220 2 Q182 12 144 36 Q136 46 146 54 Q150 58 160 52 Z" /><glyph glyph-name="" unicode="&#x4e71;" d="M28 136 Q58 134 94 142 Q108 146 122 154 Q134 158 136 144 Q136 138 126 134 Q112 130 94 126 L94 108 L106 108 Q142 106 144 100 Q144 98 140 94 L96 94 L96 74 Q108 72 114 74 Q128 80 132 68 Q130 46 130 26 Q128 10 112 12 Q106 14 102 16 Q86 18 70 16 Q62 14 54 12 Q44 10 42 18 Q42 48 36 66 Q38 78 50 76 Q60 72 72 74 L72 94 Q34 94 14 84 Q8 82 8 90 Q12 104 24 108 Q34 104 72 108 L72 124 Q64 122 52 122 Q30 122 26 132 Q26 136 28 136 ZM60 58 Q52 42 64 32 Q86 26 108 32 Q116 46 108 58 Q84 62 60 58 ZM172 150 Q184 146 178 130 Q174 122 170 108 Q166 90 168 60 Q168 46 182 40 Q204 32 230 38 Q252 44 252 38 Q248 22 236 12 Q222 0 202 6 Q176 12 158 28 Q148 36 146 52 L146 86 Q148 108 150 128 Q156 154 172 150 Z" /><glyph glyph-name="" unicode="&#x4e7e;" d="M62 134 Q38 132 30 128 Q22 126 22 134 Q24 146 38 146 Q44 144 62 144 L62 158 Q64 164 72 164 Q78 162 84 158 L84 144 L106 144 Q114 144 118 140 Q122 130 100 132 Q92 134 84 134 L84 124 Q86 120 94 120 Q98 122 102 122 Q114 122 112 112 Q142 132 148 156 Q150 162 158 162 Q168 158 168 148 L160 136 L224 136 Q228 134 228 128 Q226 124 222 122 Q166 122 150 120 Q142 112 124 106 Q118 104 112 108 L112 78 Q112 64 98 66 Q92 68 84 68 L84 56 Q104 56 120 54 Q132 50 130 46 Q128 42 110 42 L84 42 L84 12 Q80 4 70 2 Q64 0 62 10 L62 42 Q28 42 16 36 Q6 34 8 44 Q14 56 22 56 Q34 54 62 56 L62 68 Q54 68 48 66 Q32 64 34 74 Q34 90 32 110 Q32 118 40 122 Q52 122 62 124 L62 134 ZM168 102 Q176 106 186 106 Q194 106 196 96 Q192 88 188 84 Q170 72 158 52 Q158 42 164 40 Q180 32 200 34 Q224 36 248 52 Q252 52 248 42 Q244 28 232 12 Q222 0 196 4 Q164 8 146 22 Q138 32 138 48 Q140 60 152 72 Q166 90 134 82 Q118 76 122 88 Q128 102 140 104 Q144 102 168 102 ZM52 100 L94 100 Q94 110 88 112 L60 112 Q52 112 52 100 ZM94 90 L52 90 Q52 86 54 80 Q58 78 84 78 Q94 78 94 90 Z" /><glyph glyph-name="" unicode="&#x4e86;" d="M40 152 Q48 148 58 148 Q92 156 126 158 Q142 158 158 154 Q176 148 196 142 Q206 146 216 146 Q224 144 228 136 Q232 126 224 122 Q184 114 146 98 Q156 86 156 64 Q154 32 138 16 Q124 6 114 4 Q88 -2 56 14 Q32 30 32 38 Q34 40 38 38 Q58 22 92 20 Q108 22 116 28 Q132 38 134 62 Q134 90 116 104 Q106 110 102 112 Q100 116 106 118 Q122 118 140 104 Q160 112 180 126 Q174 132 164 136 Q142 142 122 142 Q80 140 46 130 Q34 126 24 122 Q16 118 12 126 Q10 136 22 146 Q30 152 40 152 Z" /><glyph glyph-name="" unicode="&#x4e89;" d="M142 60 L142 32 Q144 2 104 0 Q90 0 68 8 Q58 14 52 20 Q48 28 62 24 Q74 20 84 18 Q116 14 118 30 Q120 40 118 60 Q90 62 70 56 Q58 52 58 60 Q62 70 70 72 Q92 70 118 70 Q122 78 118 84 Q80 86 50 82 Q34 80 22 76 Q6 72 12 86 Q20 98 28 98 Q58 94 118 96 Q122 100 118 106 Q102 110 74 106 Q62 102 64 110 Q70 122 80 120 Q102 118 126 118 Q134 122 146 130 Q138 142 122 138 Q110 136 98 132 Q84 128 74 124 Q52 118 40 126 Q32 132 42 136 Q48 136 58 138 Q94 142 122 156 Q138 166 144 164 Q154 160 148 152 Q144 146 150 144 Q164 148 170 146 Q182 136 168 126 Q160 120 152 118 Q168 116 180 118 Q190 122 198 122 Q208 120 208 110 Q206 100 206 94 Q238 92 248 92 Q246 66 230 72 Q222 78 206 80 Q204 72 206 62 Q204 48 182 56 Q164 62 142 60 ZM182 82 Q158 86 142 84 Q138 78 142 72 L164 72 Q186 70 182 82 ZM180 96 Q186 100 180 108 Q160 110 144 108 Q140 102 142 96 Q158 94 180 96 Z" /><glyph glyph-name="" unicode="&#x4e8b;" d="M178 56 Q164 58 138 58 Q136 52 138 48 Q164 46 176 48 Q182 52 178 56 ZM174 74 Q158 76 140 76 Q136 72 140 68 Q164 66 180 68 Q184 72 174 74 ZM116 76 Q78 76 58 72 Q50 70 54 80 Q58 88 64 88 Q68 84 76 84 Q82 86 88 86 Q106 88 116 88 L116 96 Q86 94 74 92 Q70 90 64 92 Q58 96 60 100 Q62 110 58 118 Q58 124 62 126 Q68 128 70 128 Q76 126 82 124 Q106 124 116 126 L116 134 Q76 134 26 126 Q14 122 14 130 Q16 140 22 144 Q26 148 32 148 Q46 144 54 146 Q78 144 116 148 Q114 158 118 162 Q124 166 128 164 Q134 162 136 160 Q142 154 142 148 Q170 148 194 146 Q228 144 244 144 Q254 144 250 138 Q248 132 242 126 Q228 118 218 122 Q206 128 190 130 Q160 134 140 134 L140 126 Q148 124 156 124 Q172 124 182 126 Q190 128 194 124 Q202 120 200 114 Q196 104 196 98 Q196 92 190 92 Q188 92 184 92 Q166 94 140 96 Q138 94 140 86 Q164 82 180 84 Q186 88 194 86 Q202 84 200 78 L198 66 Q208 66 218 68 Q226 66 232 62 Q238 54 226 54 L198 56 Q196 46 198 40 Q198 34 192 32 Q186 30 178 34 Q164 38 138 38 Q136 20 122 8 Q114 4 102 2 Q88 2 62 14 Q56 20 62 22 Q88 18 102 20 Q114 24 116 38 Q84 38 56 32 Q48 28 50 38 Q54 46 60 48 Q74 46 116 48 Q118 52 116 58 Q56 58 30 52 Q22 50 24 58 Q30 66 36 66 Q46 64 68 66 Q96 68 116 68 L116 76 ZM140 106 Q162 102 176 104 Q182 108 178 112 Q162 116 140 114 Q136 110 140 106 ZM116 114 Q100 116 84 112 Q78 108 84 104 Q98 104 116 106 Q118 110 116 114 Z" /><glyph glyph-name="" unicode="&#x4e8c;" d="M58 134 Q68 126 78 128 L200 128 Q206 126 208 122 Q206 114 196 112 L86 112 Q62 112 52 108 Q40 108 42 120 Q46 132 58 134 ZM26 52 Q40 50 86 52 Q116 54 154 52 Q218 48 250 50 Q250 42 244 30 Q232 8 214 14 Q184 28 156 32 Q126 38 90 36 Q38 34 20 20 Q8 18 10 32 Q14 50 26 52 Z" /><glyph glyph-name="" unicode="&#x4e91;" d="M30 106 Q82 102 162 106 Q250 104 250 100 Q248 88 238 80 Q228 70 218 74 Q182 90 146 90 Q120 72 98 48 Q90 40 102 34 Q126 24 134 26 Q158 30 166 44 Q140 60 140 68 Q144 76 150 76 Q160 76 180 60 Q208 44 218 28 Q222 20 214 18 Q200 22 180 36 Q162 12 136 10 Q108 12 86 24 Q78 28 66 16 Q56 12 50 22 Q44 34 54 42 Q68 46 92 66 Q110 82 112 90 Q40 88 22 76 Q8 72 10 86 Q14 102 30 106 ZM74 150 Q100 146 164 150 Q190 148 190 140 Q192 134 184 132 Q96 136 68 126 Q60 122 58 130 Q60 146 74 150 Z" /><glyph glyph-name="" unicode="&#x4e94;" d="M110 44 Q146 42 164 42 Q176 86 158 86 L126 86 Q120 64 110 44 ZM116 130 Q72 132 48 124 Q36 124 40 136 Q48 150 62 150 Q70 146 82 146 Q142 146 208 144 Q212 144 214 140 Q216 128 198 128 Q160 130 136 130 Q134 116 130 100 Q166 98 180 104 Q194 104 194 88 Q188 80 184 42 Q238 42 250 38 Q232 4 206 14 Q180 26 124 26 Q54 30 24 18 Q10 10 8 20 Q10 40 26 42 Q42 40 88 44 Q98 60 106 86 Q82 86 66 82 Q56 82 60 90 Q64 104 78 106 Q88 98 110 100 Q114 116 116 130 Z" /><glyph glyph-name="" unicode="&#x4e95;" d="M140 130 Q144 140 140 152 Q142 162 152 162 Q158 164 164 154 Q168 150 168 144 Q164 138 166 128 Q192 128 208 126 Q218 118 206 114 L166 114 Q162 106 166 94 L198 92 Q246 92 250 88 Q248 78 236 66 Q226 56 216 62 Q202 68 166 78 Q162 44 166 12 Q168 2 152 0 Q142 -2 140 10 Q142 56 140 80 Q128 82 110 80 Q106 46 86 26 Q64 12 48 12 Q34 12 24 18 Q18 24 28 26 Q44 28 56 34 Q86 50 88 80 Q50 78 32 72 Q24 70 16 66 Q8 64 8 74 Q14 90 26 94 Q40 90 88 94 Q92 104 88 114 Q68 116 56 112 Q44 108 46 120 Q50 126 56 130 Q62 134 68 132 Q74 128 90 128 Q90 140 86 146 Q88 156 98 158 Q106 158 110 150 Q112 142 112 130 Q130 128 140 130 ZM138 96 Q144 104 138 112 Q126 116 114 112 Q108 106 112 96 Q126 94 138 96 Z" /><glyph glyph-name="" unicode="&#x4ea4;" d="M158 96 Q168 84 150 66 Q202 40 222 36 Q246 32 246 28 Q242 20 232 12 Q212 -6 182 16 Q158 38 138 52 Q74 -4 14 22 Q10 32 20 30 Q74 24 116 64 Q92 76 78 84 Q72 90 90 94 Q110 88 130 76 L140 90 Q146 104 158 96 ZM102 126 Q110 124 108 116 Q106 108 94 102 Q66 84 46 82 Q40 84 46 90 Q62 100 82 116 Q90 128 102 126 ZM162 126 Q182 112 208 94 Q216 86 204 86 Q174 96 150 106 Q140 112 148 122 Q154 126 162 126 ZM56 146 Q82 140 100 142 Q112 140 110 150 Q114 164 126 162 Q138 162 140 154 Q142 140 150 142 L196 142 Q218 142 218 134 Q222 124 210 126 Q118 132 48 122 Q36 118 36 128 Q42 144 56 146 Z" /><glyph glyph-name="" unicode="&#x4ea8;" d="M110 148 Q112 158 118 164 Q126 172 140 164 Q146 158 148 148 Q202 144 244 144 Q232 108 216 118 Q194 126 178 130 Q158 134 136 134 L104 134 Q82 132 58 130 Q44 128 34 126 Q24 122 16 120 Q8 116 8 126 Q10 134 14 138 Q18 144 26 146 Q32 146 38 144 Q78 146 110 148 ZM72 126 Q76 126 80 124 Q112 122 140 124 Q148 122 156 122 Q160 124 164 124 Q180 124 180 110 Q178 102 176 94 Q172 88 164 90 Q150 94 140 94 L100 94 Q88 92 78 88 Q70 88 66 92 Q62 100 60 108 Q58 116 62 120 Q66 124 72 126 ZM86 106 Q88 102 158 104 Q162 110 154 114 L94 114 Q86 112 86 106 ZM74 82 Q82 84 92 86 Q112 88 138 86 Q148 84 160 82 Q164 82 174 84 Q180 84 186 80 Q192 72 184 66 Q174 60 166 58 Q150 54 144 54 Q154 38 150 28 Q138 0 102 0 Q70 4 50 20 Q42 30 50 30 Q84 18 102 18 Q132 22 130 46 Q128 54 120 62 Q116 68 124 68 Q132 66 140 60 Q150 62 158 68 Q158 72 152 74 Q140 78 130 78 Q108 78 92 72 Q78 66 70 60 Q60 56 58 66 Q60 76 74 82 Z" /><glyph glyph-name="" unicode="&#x4eba;" d="M116 156 Q136 152 134 138 Q128 120 126 112 Q202 38 250 30 Q252 24 236 8 Q222 -6 200 12 Q176 34 156 54 Q136 72 120 88 Q110 64 94 46 Q60 14 28 12 Q6 12 8 32 Q12 34 38 38 Q70 46 92 82 Q106 110 104 130 Q104 156 116 156 Z" /><glyph glyph-name="" unicode="&#x4ec1;" d="M90 158 Q96 160 96 154 Q90 138 78 128 Q74 68 76 18 Q74 8 62 6 Q54 4 52 12 L52 114 Q40 106 32 104 Q24 102 14 114 Q8 130 12 130 Q48 136 90 158 ZM206 130 Q214 130 216 122 Q216 114 210 112 Q156 118 114 108 Q104 106 104 114 Q108 130 120 132 Q162 128 206 130 ZM154 62 Q252 60 252 54 Q250 44 240 34 Q228 24 212 30 Q186 40 140 40 Q114 40 98 30 Q80 24 82 42 Q90 60 102 64 Q122 58 154 62 Z" /><glyph glyph-name="" unicode="&#x4eca;" d="M108 150 Q118 164 128 158 Q136 150 132 144 Q130 140 136 138 Q164 122 228 106 Q250 102 250 100 Q248 90 238 80 Q222 64 206 76 Q200 80 184 90 Q152 112 116 128 Q108 126 98 116 Q46 66 14 78 Q0 90 20 96 Q66 104 108 150 ZM122 104 L148 92 Q154 80 116 84 Q108 86 102 90 Q96 96 102 106 Q108 112 122 104 ZM156 70 Q164 78 174 74 Q188 66 184 54 Q160 14 118 2 Q100 2 106 12 Q106 16 118 20 Q144 32 150 46 Q156 54 136 56 Q96 58 62 50 Q54 50 56 58 Q64 74 74 74 Q114 68 156 70 Z" /><glyph glyph-name="" unicode="&#x4ece;" d="M92 154 Q108 152 104 132 Q102 112 94 96 Q94 92 96 88 Q116 72 126 56 Q142 82 146 120 Q146 138 144 152 Q142 164 162 160 Q172 156 170 142 Q166 118 162 94 Q176 80 200 60 Q234 36 252 34 Q234 0 214 10 Q206 16 198 28 Q178 54 158 74 Q144 36 120 18 Q100 8 86 12 Q70 18 78 22 Q88 26 100 32 Q114 40 120 48 Q112 48 88 72 Q84 70 82 66 Q72 52 62 42 Q44 24 28 22 Q18 22 8 32 Q4 38 12 40 Q40 48 64 76 Q84 104 82 142 Q84 154 92 154 Z" /><glyph glyph-name="" unicode="&#x4ed4;" d="M154 120 Q166 130 172 132 Q182 136 150 140 Q136 140 120 132 Q112 124 108 130 Q106 140 114 146 Q150 158 166 154 Q176 150 186 148 Q208 148 206 138 Q206 128 194 126 Q178 120 164 112 Q174 104 174 98 Q208 96 250 96 Q252 92 246 80 Q238 64 222 72 Q204 80 178 82 Q182 52 174 30 Q164 10 142 8 Q112 6 98 30 Q98 32 100 32 Q136 24 144 32 Q164 48 154 82 Q128 82 108 78 Q86 72 86 80 Q88 96 104 96 Q124 96 152 98 Q146 110 138 118 Q134 128 154 120 ZM86 154 Q102 158 88 138 Q82 130 74 120 L74 22 Q74 10 60 8 Q46 4 48 22 Q52 66 48 104 Q26 88 18 94 Q12 96 8 112 Q50 126 86 154 Z" /><glyph glyph-name="" unicode="&#x4ed6;" d="M120 98 Q120 62 144 50 Q186 42 216 46 Q232 50 250 54 Q252 54 248 42 Q242 32 236 20 Q222 4 202 8 Q146 18 118 40 Q104 50 104 94 L90 88 Q78 80 78 96 Q80 108 88 110 Q96 110 104 110 L104 114 Q104 124 106 132 Q108 144 114 144 Q130 142 124 122 L122 116 L140 122 Q140 144 140 152 Q140 164 154 160 Q166 156 162 128 Q198 138 206 132 Q214 126 212 118 Q206 90 192 70 Q186 66 178 64 Q164 64 168 72 Q174 76 178 80 Q192 106 186 114 Q184 118 160 112 L160 92 Q160 80 160 72 Q160 62 150 60 Q142 60 140 68 L140 106 L120 98 ZM62 144 Q78 150 90 156 Q106 156 94 142 Q86 136 74 126 Q78 76 76 24 Q76 14 64 12 Q48 8 50 24 Q56 66 56 118 Q48 112 30 108 Q16 104 8 126 Q8 134 62 144 Z" /><glyph glyph-name="" unicode="&#x4ed9;" d="M154 154 Q172 156 170 136 Q166 90 168 42 Q202 36 200 48 Q202 74 198 100 Q196 122 208 122 Q226 124 222 102 Q218 72 224 40 Q224 32 222 24 Q216 10 200 16 Q190 20 178 22 Q128 26 104 16 Q82 8 90 40 Q98 64 96 88 Q88 120 104 118 Q118 116 116 98 Q112 76 114 46 Q114 38 122 40 Q132 42 142 42 Q144 88 142 140 Q142 154 154 154 ZM92 152 Q98 152 96 146 Q88 128 72 118 Q72 68 70 20 Q70 6 56 6 Q40 6 44 22 Q50 68 48 108 Q28 96 16 108 Q6 126 14 130 Q48 128 92 152 Z" /><glyph glyph-name="" unicode="&#x4ee4;" d="M136 150 Q132 146 148 138 Q198 118 248 106 Q256 106 236 88 Q220 76 202 84 Q192 90 182 98 Q146 126 122 134 Q90 112 58 94 Q28 76 16 82 Q8 88 6 94 Q12 98 34 104 Q82 122 106 150 Q112 158 120 164 Q128 166 136 160 Q140 156 136 150 ZM136 32 Q154 20 168 10 Q170 2 146 6 Q114 16 90 36 Q84 42 92 52 Q98 56 104 52 Q114 46 126 38 Q142 44 154 56 Q158 66 136 68 Q106 70 92 64 Q80 60 70 56 Q60 52 60 62 Q62 78 78 84 Q86 82 96 80 Q116 84 138 82 Q150 80 164 78 Q170 80 178 82 Q184 82 192 70 Q192 64 182 56 Q170 48 158 40 Q142 34 136 32 ZM152 92 Q152 90 142 90 Q132 92 118 96 Q104 100 110 114 Q116 122 122 118 Q126 114 132 110 Q142 102 152 92 Z" /><glyph glyph-name="" unicode="&#x4ee5;" d="M166 74 Q212 42 250 32 Q248 22 234 12 Q210 0 190 28 Q166 52 156 56 Q134 30 114 16 Q92 0 58 12 Q48 16 58 22 Q88 24 128 54 Q154 76 160 124 Q162 138 158 150 Q154 164 170 162 Q190 160 186 136 Q184 106 166 74 ZM54 120 L54 78 Q54 64 58 64 Q68 64 94 80 Q104 88 110 88 Q114 82 100 70 Q56 34 34 30 Q20 28 16 44 Q16 50 22 54 Q38 68 36 102 Q30 120 30 128 Q30 134 36 136 Q50 136 54 120 ZM94 150 Q118 134 126 126 Q128 120 118 120 Q94 120 80 128 Q70 138 76 148 Q80 152 84 152 Q88 154 94 150 Z" /><glyph glyph-name="" unicode="&#x4efb;" d="M196 158 Q212 162 212 146 Q212 142 204 136 Q194 130 168 126 L168 96 L190 96 Q244 100 250 96 Q250 80 238 70 Q226 62 210 74 Q186 82 168 80 L168 38 Q194 34 216 38 Q236 36 234 28 Q234 18 218 18 Q130 28 96 16 Q86 16 86 26 Q88 38 100 42 Q116 36 144 38 L144 82 Q108 82 80 72 Q72 70 72 80 Q74 88 78 92 Q84 96 92 98 Q112 90 144 96 L144 124 L116 124 Q96 122 92 136 Q94 140 98 140 Q116 140 136 142 Q168 144 196 158 ZM80 158 Q88 160 86 154 Q82 138 66 124 Q66 70 68 20 Q68 10 52 8 Q46 8 42 14 Q44 64 44 116 Q32 108 20 112 Q4 124 12 132 Q46 136 80 158 Z" /><glyph glyph-name="" unicode="&#x4f11;" d="M134 114 Q110 114 94 110 Q86 110 86 116 Q90 128 98 130 Q116 128 134 130 L134 150 Q134 162 144 162 Q162 160 160 148 L160 130 L172 130 Q184 130 198 128 Q212 128 222 124 Q226 112 214 114 L160 114 Q216 68 250 56 Q242 42 236 38 Q220 26 204 44 Q184 68 160 90 L160 18 Q160 4 146 2 Q132 0 132 20 Q134 36 134 48 L134 82 Q124 62 114 50 Q102 32 78 42 Q74 46 80 52 Q114 76 134 114 ZM92 156 Q98 156 96 150 Q88 136 72 124 L72 28 Q72 18 68 14 Q62 8 56 8 Q46 6 46 20 Q48 28 48 58 L48 112 Q32 98 16 112 Q2 124 10 130 Q48 134 92 156 Z" /><glyph glyph-name="" unicode="&#x4f19;" d="M92 158 Q102 158 88 138 Q74 126 68 122 L68 26 Q70 30 82 32 Q114 44 130 80 Q134 94 134 112 Q134 138 132 148 Q130 152 132 156 Q134 160 140 162 Q146 162 152 158 Q162 150 158 126 Q156 110 154 96 Q214 42 250 30 Q224 -4 208 12 Q178 50 148 76 Q136 36 104 20 Q78 10 68 20 L68 10 Q64 6 60 4 Q44 2 44 14 Q48 42 48 72 L48 112 Q32 106 24 104 Q16 106 10 116 Q6 124 8 132 Q8 134 24 136 Q58 142 92 158 ZM98 132 Q104 134 110 130 Q114 128 114 118 Q116 102 120 90 Q120 86 116 86 Q96 96 90 116 Q86 128 98 132 ZM198 136 Q206 134 210 124 Q212 118 204 108 Q184 90 168 86 Q166 88 164 90 Q182 110 188 132 Q192 138 198 136 Z" /><glyph glyph-name="" unicode="&#x4f1a;" d="M196 62 L116 62 Q122 58 120 52 Q112 48 102 38 Q92 26 124 24 Q138 24 148 34 L136 42 Q132 46 138 56 Q140 58 146 56 Q152 54 160 46 Q182 26 190 18 Q192 12 186 12 Q170 18 160 26 Q142 6 122 6 Q104 10 90 18 Q78 18 68 14 Q60 14 60 20 Q58 32 66 34 Q78 36 92 48 Q102 60 98 62 Q70 62 54 56 Q48 56 48 60 Q46 66 52 72 Q62 80 68 78 Q74 76 86 76 Q110 78 136 78 Q152 78 186 74 Q200 72 204 68 Q202 62 196 62 ZM132 152 Q134 148 130 144 Q214 104 248 98 Q228 68 208 78 Q166 108 120 134 Q78 104 46 88 Q26 80 22 82 Q12 84 6 92 Q2 98 22 102 Q76 116 118 160 Q124 164 132 152 ZM152 92 L82 92 Q78 94 82 102 Q86 110 94 108 L122 108 Q138 106 152 104 Q156 102 160 100 Q160 92 152 92 Z" /><glyph glyph-name="" unicode="&#x4f3c;" d="M184 136 Q184 144 186 152 Q188 166 208 150 Q216 144 210 128 Q202 100 192 74 Q222 42 250 34 Q252 26 238 14 Q224 2 214 18 Q196 46 184 58 Q176 42 160 28 Q138 12 114 8 Q96 12 106 18 Q140 28 164 60 Q184 94 184 136 ZM86 158 Q94 160 88 148 Q78 136 68 128 L68 16 Q66 10 52 6 Q46 4 44 10 Q48 64 46 114 Q30 104 22 104 Q8 106 4 128 Q4 132 18 134 Q54 138 86 158 ZM96 132 Q116 128 114 116 Q110 100 110 76 Q108 64 116 68 Q130 78 144 92 Q152 96 150 86 Q148 80 138 68 Q124 50 112 42 Q102 36 92 34 Q82 32 76 42 Q76 48 80 52 Q92 62 94 82 Q94 104 90 118 Q86 132 96 132 ZM130 152 Q142 158 152 146 Q158 136 166 122 Q170 114 154 118 Q144 124 134 130 Q120 142 130 152 Z" /><glyph glyph-name="" unicode="&#x4f4d;" d="M168 140 Q166 128 170 128 Q222 126 228 124 Q234 118 228 114 Q216 110 190 112 Q196 110 198 104 Q192 64 172 40 Q210 34 248 36 Q230 2 204 14 Q186 22 154 24 Q104 26 84 16 Q70 12 72 26 Q82 44 94 44 Q108 38 162 40 Q176 84 178 112 Q116 116 94 106 Q84 104 84 112 Q90 128 104 130 Q114 124 136 128 Q138 130 138 146 Q140 158 150 160 Q170 158 168 140 ZM138 100 Q136 76 142 48 Q140 38 130 48 Q118 68 116 92 Q114 108 126 108 Q136 108 138 100 ZM90 160 Q96 164 96 156 Q86 134 66 120 L66 14 Q64 6 54 6 Q48 6 44 14 Q46 62 46 110 Q18 96 10 112 Q8 118 8 124 Q16 126 42 134 Q66 142 90 160 Z" /><glyph glyph-name="" unicode="&#x4f5c;" d="M166 120 L166 98 L216 98 Q224 96 224 94 Q230 88 220 86 Q194 82 166 84 L166 66 L214 66 Q238 64 238 60 Q238 50 218 50 Q194 52 166 52 L166 12 Q166 2 150 2 Q142 0 140 10 L140 126 Q114 106 92 100 Q82 98 84 106 Q120 138 130 160 Q136 166 142 162 Q162 152 152 140 Q194 136 250 134 Q252 128 242 114 Q232 106 214 116 Q190 120 166 120 ZM88 158 Q104 160 94 144 Q86 136 78 130 L78 26 Q80 14 68 10 Q54 4 54 16 L54 118 Q32 106 24 112 Q2 134 14 136 Q54 140 88 158 Z" /><glyph glyph-name="" unicode="&#x4f60;" d="M38 138 Q64 144 92 158 Q108 160 92 142 Q84 132 74 124 Q72 116 72 110 Q72 66 72 22 Q74 12 64 8 Q50 2 46 10 Q48 32 48 54 Q48 112 44 112 Q26 108 22 110 Q14 112 6 120 Q2 134 12 134 Q26 136 38 138 ZM122 156 Q126 164 134 162 Q144 156 144 148 Q142 142 138 132 Q150 134 178 132 Q190 132 204 130 Q216 138 224 134 Q232 128 228 114 Q226 100 224 90 Q216 78 212 90 Q212 102 210 112 Q206 116 200 118 Q170 120 140 118 Q130 118 116 110 Q102 100 90 96 Q80 96 84 104 Q92 110 102 118 Q118 132 122 156 ZM146 106 Q146 114 160 112 Q168 108 170 102 L170 22 Q170 18 162 8 Q150 0 138 2 Q128 4 114 16 Q104 24 108 28 Q114 24 126 22 Q134 20 140 24 Q148 28 146 44 L146 106 ZM116 88 Q120 96 124 96 Q132 96 134 88 Q134 80 128 68 Q120 54 110 46 Q98 36 88 32 Q76 32 84 42 Q108 66 116 88 ZM184 92 Q188 98 192 94 Q198 86 204 76 Q212 64 222 52 Q234 40 246 28 Q250 18 240 20 Q216 32 196 54 Q186 66 182 76 Q178 84 184 92 Z" /><glyph glyph-name="" unicode="&#x4f7f;" d="M98 72 Q92 72 92 80 Q94 92 90 106 Q90 114 100 114 Q108 114 114 112 Q126 114 140 114 L140 126 Q114 126 90 120 Q84 120 84 128 Q90 140 96 140 Q114 138 140 138 L140 152 Q142 162 146 162 Q156 162 160 156 Q162 146 162 138 L186 138 Q200 138 214 134 Q222 128 214 124 Q190 126 162 126 L162 114 Q174 114 190 112 Q192 114 202 116 Q212 112 208 104 Q206 92 206 76 Q206 68 196 70 Q186 74 158 76 L154 58 Q214 32 252 34 Q252 26 236 10 Q218 -2 200 10 Q174 26 146 44 Q136 28 118 20 Q86 12 74 20 Q68 24 78 28 Q88 30 98 32 Q120 40 128 50 Q120 54 108 52 Q96 50 100 60 Q104 70 112 70 Q128 66 136 64 L138 76 Q110 76 98 72 ZM140 102 Q114 102 112 92 Q110 82 140 88 L140 102 ZM160 88 Q186 84 186 94 Q184 102 162 102 Q160 96 160 88 ZM84 148 Q74 136 62 126 L62 22 Q62 12 50 8 Q38 6 40 22 L40 114 Q26 106 18 112 Q10 120 8 128 Q8 134 16 134 Q46 138 80 156 Q90 156 84 148 Z" /><glyph glyph-name="" unicode="&#x4fbf;" d="M154 70 Q152 60 152 56 Q192 40 246 34 Q230 -4 198 10 Q176 24 144 40 Q142 36 132 28 Q94 0 64 20 Q62 6 42 6 Q36 8 36 20 Q40 62 42 102 Q42 116 38 116 Q18 106 10 116 Q4 124 4 132 Q6 138 14 140 Q44 148 78 160 Q86 164 86 156 Q76 138 66 128 Q64 78 64 26 Q106 26 128 48 Q116 52 104 56 Q98 64 110 66 Q120 64 132 62 Q134 64 134 72 Q122 74 110 70 Q94 62 90 74 Q90 96 86 116 Q90 128 106 124 Q120 122 134 124 Q138 134 132 138 L122 138 Q110 138 98 134 Q88 134 90 142 Q96 156 106 156 Q136 148 182 152 Q194 152 208 148 Q214 136 202 136 Q180 138 158 138 Q156 134 156 124 Q174 122 190 126 Q206 128 204 110 Q200 94 202 74 Q202 60 182 68 Q168 72 154 70 ZM156 110 L156 102 Q168 100 178 102 Q186 104 182 112 Q160 114 156 110 ZM156 92 L156 82 Q170 78 182 84 Q184 88 182 92 Q168 94 156 92 ZM132 102 Q138 106 134 114 L112 114 Q106 112 108 102 L132 102 ZM134 92 L106 92 Q104 84 108 82 L134 82 L134 92 Z" /><glyph glyph-name="" unicode="&#x4fc3;" d="M90 142 Q82 132 74 126 L74 28 Q90 34 110 66 Q118 84 124 88 Q132 90 136 84 Q138 76 132 64 Q140 60 150 56 L150 88 Q150 104 140 104 Q130 102 122 100 Q116 98 114 104 Q108 120 106 146 Q106 162 116 162 Q126 161 138 158 L182 158 Q190 158 196 160 Q200 162 206 158 Q214 154 214 144 Q210 126 204 104 Q202 98 194 102 Q188 104 178 104 Q174 102 174 82 Q188 82 212 84 Q216 84 218 80 Q222 70 212 70 L174 70 L174 48 Q208 34 250 34 Q240 8 230 4 Q220 -2 210 4 Q166 24 124 52 Q118 44 108 34 Q82 14 74 18 Q74 10 70 6 Q64 0 58 0 Q48 0 48 6 L48 114 Q32 104 24 108 Q6 118 6 130 Q46 138 88 160 Q100 162 90 142 ZM184 146 Q160 150 136 146 Q128 144 128 130 Q130 118 136 116 Q158 114 182 116 Q186 118 188 124 Q192 140 184 146 Z" /><glyph glyph-name="" unicode="&#x4fca;" d="M172 58 Q218 36 250 34 Q246 22 232 10 Q216 -4 202 8 Q182 24 160 46 Q146 32 124 20 Q104 10 98 12 Q84 10 76 22 Q76 24 112 34 Q136 46 148 58 Q142 64 132 72 Q124 64 112 58 Q98 50 88 60 Q118 76 142 104 Q146 106 152 102 Q158 96 152 92 Q162 90 172 90 Q176 92 180 94 Q184 96 192 88 Q198 82 192 76 Q184 66 172 58 ZM158 158 Q168 150 158 146 Q152 144 146 140 Q134 132 134 128 Q146 126 156 126 Q166 130 176 136 L168 142 Q164 150 170 152 Q176 156 184 148 Q206 130 210 124 Q210 118 204 120 Q194 122 184 130 Q182 122 164 114 Q146 110 132 118 Q138 108 128 100 Q114 92 106 88 Q84 80 78 86 Q80 90 84 92 Q116 108 122 120 Q106 116 102 126 Q100 134 112 138 Q128 142 140 160 Q144 166 158 158 ZM88 156 Q102 156 96 148 Q84 136 70 124 L70 18 Q68 8 58 6 Q46 6 46 20 L46 112 Q22 102 14 116 Q10 124 8 130 Q8 134 20 136 Q54 140 88 156 ZM232 92 Q236 88 228 86 Q220 86 210 88 Q186 94 176 104 Q170 110 176 114 Q182 120 188 116 Q208 100 232 92 ZM160 68 Q174 76 170 80 Q160 82 146 82 L142 80 Q150 72 160 68 Z" /><glyph glyph-name="" unicode="&#x4fdd;" d="M86 156 Q96 158 90 146 Q82 132 74 126 Q72 104 74 82 Q80 94 90 96 Q110 90 140 92 L140 106 Q128 104 122 102 Q112 98 110 108 Q108 122 104 138 Q104 158 128 152 Q150 150 174 152 Q202 158 202 140 Q200 130 198 114 Q200 100 184 102 Q176 106 164 106 L164 92 L190 92 Q238 90 250 90 Q244 72 234 66 Q222 62 200 72 Q184 78 164 78 Q162 54 164 32 Q166 6 156 4 Q138 0 138 18 Q142 46 140 78 Q108 78 84 72 Q74 68 74 78 Q72 58 74 38 Q76 10 60 6 Q48 6 50 20 Q52 58 52 112 Q26 94 16 104 Q4 118 12 126 Q50 136 86 156 ZM172 138 Q152 142 134 138 Q126 126 134 120 Q152 116 174 120 Q180 130 172 138 ZM112 66 Q118 74 128 66 Q132 56 120 44 Q102 28 84 24 Q78 22 78 28 Q98 44 112 66 ZM200 58 Q216 38 232 26 Q234 20 226 18 Q196 28 176 54 Q172 62 178 66 Q188 76 200 58 Z" /><glyph glyph-name="" unicode="&#x4fe1;" d="M94 152 Q88 140 70 120 L70 28 Q72 18 68 10 Q62 4 54 4 Q48 4 48 14 L48 102 Q34 90 18 100 Q2 110 6 116 Q50 128 88 158 Q94 160 94 152 ZM170 144 Q178 138 164 136 Q156 136 150 136 Q120 138 124 148 Q132 166 140 162 Q146 156 170 144 ZM108 126 Q132 128 154 128 Q236 126 252 122 Q248 114 240 104 Q232 96 220 100 Q192 108 164 112 Q152 114 128 112 Q100 108 88 104 Q78 104 80 114 Q86 124 96 128 Q100 128 108 126 ZM128 104 Q136 102 144 102 L170 102 Q180 102 190 100 Q196 90 178 92 L138 92 Q128 90 118 88 Q110 88 114 98 Q122 108 128 104 ZM126 84 Q144 82 186 82 Q202 80 200 76 Q200 70 196 70 Q170 72 136 72 Q124 70 114 68 Q106 66 110 78 Q112 82 126 84 ZM128 58 Q146 62 158 60 Q168 58 178 56 Q188 60 200 56 Q206 52 204 40 Q202 30 202 18 Q200 10 194 8 Q188 6 178 10 Q158 14 140 14 Q128 10 116 8 Q104 4 102 18 Q100 32 98 48 Q98 60 112 60 Q120 58 128 58 ZM174 44 Q152 48 132 46 Q126 46 122 40 Q120 28 130 26 Q182 26 178 28 Q184 40 174 44 Z" /><glyph glyph-name="" unicode="&#x5012;" d="M116 144 L144 144 Q172 142 172 138 Q170 130 138 132 Q128 122 120 110 Q118 104 128 102 Q134 102 148 106 Q142 110 136 118 Q138 122 140 122 Q148 122 162 114 Q168 108 172 104 Q176 96 170 92 Q162 92 152 102 Q148 94 138 90 L138 78 L148 78 Q164 74 164 72 Q166 66 154 66 L138 66 L138 50 L154 52 Q178 48 178 44 Q180 40 170 38 Q126 36 90 32 Q80 30 78 38 Q80 50 90 50 Q104 50 118 52 L118 66 Q108 66 98 62 Q94 60 92 68 Q92 74 96 76 L118 76 L118 90 Q108 96 94 90 Q88 90 88 96 Q86 106 94 110 Q108 112 122 130 Q106 132 94 128 Q90 130 90 132 Q94 148 104 148 Q110 146 116 144 ZM88 154 Q82 140 70 128 L70 16 Q68 8 52 6 Q48 6 46 10 Q46 36 48 60 Q50 108 46 110 Q30 104 24 104 Q18 106 12 116 Q6 132 16 134 Q52 138 84 160 Q88 162 88 154 ZM194 116 Q192 92 192 68 Q192 62 184 60 Q178 60 178 66 L178 104 Q178 116 176 122 Q176 128 184 128 Q192 126 194 116 ZM234 142 Q232 130 230 110 L230 28 Q228 4 190 2 Q160 10 154 28 Q154 30 156 30 Q168 24 184 24 Q200 24 206 34 Q210 46 210 60 L210 128 Q210 140 208 148 Q206 160 214 162 Q232 162 234 142 Z" /><glyph glyph-name="" unicode="&#x503e;" d="M162 136 Q138 136 120 130 Q114 128 114 136 Q124 152 132 152 Q138 150 142 150 L192 150 Q244 148 246 146 Q238 128 230 128 Q214 132 186 136 L186 120 Q194 116 204 120 Q220 116 220 106 L220 50 Q218 42 204 42 Q200 44 200 100 Q196 106 190 106 L166 106 Q158 104 152 102 Q150 98 150 94 L150 52 Q150 44 140 42 Q134 42 132 48 L132 92 Q132 106 130 110 Q130 122 142 120 Q148 116 162 120 L162 136 ZM92 134 Q96 132 96 126 Q94 118 92 106 Q104 112 114 120 Q118 120 120 118 Q128 108 122 104 Q112 102 92 98 L92 82 Q92 72 110 74 Q116 76 122 76 Q126 76 126 70 Q122 58 102 56 Q88 56 82 58 Q78 64 76 70 Q78 88 78 102 L78 124 Q80 136 92 134 ZM192 42 Q200 38 210 32 Q238 12 238 6 Q238 2 232 2 Q214 6 194 20 Q188 28 184 34 Q182 46 192 42 ZM170 102 Q182 100 184 90 Q186 66 174 42 Q148 4 116 6 Q100 12 100 18 Q100 20 112 22 Q124 26 140 32 Q164 46 166 68 Q166 84 164 92 Q162 100 170 102 ZM78 156 Q84 156 82 148 Q74 138 66 128 L66 22 Q66 16 64 10 Q60 4 54 4 Q40 4 42 16 Q46 46 44 76 L44 114 Q28 100 20 104 Q6 112 6 124 Q10 130 22 134 Q38 138 54 144 Q66 150 78 156 Z" /><glyph glyph-name="" unicode="&#x505a;" d="M174 58 Q160 78 150 92 Q134 90 140 98 Q160 120 162 150 Q164 164 172 162 Q186 158 184 146 Q182 136 178 128 Q206 128 226 126 Q234 120 226 114 Q218 112 200 112 Q200 84 196 64 Q222 44 250 34 Q224 0 208 18 Q198 30 186 44 Q176 32 156 20 Q142 12 122 26 Q122 30 124 30 Q158 38 174 58 ZM126 88 Q136 88 142 90 Q152 88 148 74 Q146 60 144 44 Q142 34 130 36 Q118 42 106 40 Q90 34 86 40 Q82 58 80 78 Q80 90 92 90 Q98 88 108 88 L108 106 Q86 104 80 102 Q74 100 74 110 Q78 120 86 120 L108 120 L108 144 Q108 156 120 154 Q128 150 128 142 Q126 134 126 120 L146 120 Q154 114 140 108 L126 108 L126 88 ZM162 100 Q168 88 180 78 Q184 96 182 112 L170 112 L162 100 ZM80 154 Q94 158 92 146 Q84 136 68 124 L68 20 Q70 8 54 8 Q44 6 44 20 Q46 44 46 66 L46 110 Q30 100 22 108 Q12 116 10 126 Q12 130 14 130 Q56 138 80 154 ZM102 74 Q96 64 102 54 L126 54 Q132 64 128 74 L102 74 Z" /><glyph glyph-name="" unicode="&#x5077;" d="M116 80 L116 72 L136 72 L136 84 Q122 86 116 80 ZM136 64 L116 64 L114 52 L136 52 L136 64 ZM84 154 Q92 156 92 148 Q84 136 66 126 Q68 112 68 98 L68 14 Q70 8 58 4 Q50 4 46 6 Q44 10 44 14 Q48 42 48 68 L48 116 Q26 104 22 106 Q10 114 6 128 Q8 132 12 132 Q46 136 84 154 ZM118 94 Q128 92 138 96 Q150 96 152 90 L152 16 Q154 8 142 6 Q136 6 136 12 L136 42 L112 42 Q110 36 104 26 Q96 16 90 12 Q80 12 72 20 Q70 24 80 28 Q88 34 96 44 Q102 56 102 66 Q100 82 100 92 Q102 96 106 98 Q112 98 118 94 ZM152 158 Q156 152 152 148 Q206 122 250 118 Q238 90 218 98 Q204 104 168 126 Q150 136 142 136 Q120 118 98 104 Q86 98 80 104 Q70 114 74 116 Q104 124 134 152 Q138 158 142 160 Q144 162 152 158 ZM116 108 Q118 116 126 116 L162 116 Q178 114 180 110 Q178 108 176 106 L146 106 Q132 106 120 104 Q116 106 116 108 ZM168 88 Q174 88 178 82 L178 46 Q176 44 174 42 Q166 42 164 48 L164 82 Q164 88 168 88 ZM206 92 L206 60 Q206 44 208 28 Q210 18 200 8 Q190 2 184 4 Q160 10 158 22 Q158 24 162 24 Q168 22 174 20 Q192 20 190 36 L190 76 Q190 84 188 90 Q186 96 192 98 Q200 98 206 92 Z" /><glyph glyph-name="" unicode="&#x513f;" d="M112 144 Q114 126 114 102 Q114 88 110 74 Q106 62 98 50 Q92 42 82 32 Q64 18 46 14 Q36 12 26 16 Q12 22 10 32 Q14 34 32 36 Q54 38 74 58 Q94 78 94 104 Q94 128 88 148 Q88 154 96 156 Q110 154 112 144 ZM152 158 Q160 154 158 146 Q148 124 148 88 Q148 66 158 56 Q178 42 200 42 Q226 40 250 52 Q250 40 244 26 Q230 4 204 4 Q188 6 172 14 Q142 26 132 56 Q128 76 128 94 Q130 130 136 154 Q142 162 152 158 Z" /><glyph glyph-name="" unicode="&#x5143;" d="M98 112 L198 112 Q214 112 214 106 Q214 96 204 96 L146 96 L146 72 Q148 58 164 48 Q196 28 224 38 Q240 46 250 52 Q256 50 246 30 Q226 -6 194 4 Q170 12 146 32 Q128 48 128 70 L128 96 L112 96 Q112 66 102 46 Q92 30 72 20 Q40 8 14 18 Q8 24 8 30 Q14 34 28 34 Q60 32 80 52 Q94 66 94 96 Q62 98 42 88 Q34 86 34 98 Q36 110 50 114 Q60 110 98 112 ZM156 152 Q176 152 190 148 Q198 142 190 138 Q184 136 168 136 L90 136 Q70 134 60 132 Q50 130 54 142 Q58 150 68 154 Q108 150 156 152 Z" /><glyph glyph-name="" unicode="&#x5145;" d="M54 144 Q68 142 100 144 Q108 142 114 158 Q118 164 126 164 Q134 164 140 156 Q142 142 154 142 L188 142 Q216 140 214 134 Q216 130 210 128 Q168 130 130 130 Q134 124 118 114 Q108 108 102 102 Q110 98 116 96 Q136 94 152 104 Q132 110 138 118 Q142 130 152 124 Q174 114 190 96 Q194 86 184 88 Q174 90 164 96 Q156 90 146 84 L142 82 Q136 46 164 36 Q200 28 222 38 Q238 46 250 52 Q246 20 228 8 Q186 -4 136 30 Q120 46 126 82 Q118 80 112 82 Q112 76 110 66 Q96 22 46 18 Q22 14 12 34 Q16 38 26 38 Q38 36 64 44 Q96 58 96 84 Q84 92 72 90 Q62 88 60 94 Q60 104 64 104 Q76 108 90 114 Q102 122 106 130 Q74 130 46 122 Q32 116 34 126 Q42 146 54 144 Z" /><glyph glyph-name="" unicode="&#x5148;" d="M78 112 Q64 102 56 102 Q44 102 50 108 Q64 116 70 136 Q74 154 82 152 Q90 152 92 144 Q92 134 86 128 L116 128 L116 150 Q116 162 126 164 Q144 164 144 148 L144 128 L190 128 Q202 128 200 118 Q198 112 192 112 L144 112 L144 96 Q174 96 208 94 Q216 94 218 88 Q220 76 204 76 Q176 78 152 78 L152 58 Q152 36 188 36 Q228 34 252 48 Q244 18 234 12 Q214 -2 176 8 Q162 12 152 18 Q132 30 130 52 L130 78 L118 78 Q116 66 108 50 Q90 24 66 14 Q46 6 26 10 Q8 18 14 26 Q82 28 98 78 Q82 80 56 74 Q36 68 38 82 Q48 98 56 96 Q78 92 116 96 L116 112 L78 112 Z" /><glyph glyph-name="" unicode="&#x5149;" d="M116 164 Q142 158 138 142 Q136 120 136 106 Q168 104 196 104 Q218 104 220 96 Q224 92 216 90 Q204 88 152 88 Q138 50 162 38 Q186 32 204 34 Q222 34 248 42 Q250 44 250 40 Q248 28 240 16 Q228 0 210 0 Q196 0 170 8 Q148 14 132 28 Q124 44 128 68 Q130 80 132 88 L116 88 Q116 58 94 36 Q72 20 54 14 Q24 4 10 12 Q6 16 6 20 Q10 24 20 26 Q50 28 76 48 Q96 64 98 88 Q62 88 38 78 Q30 74 28 82 Q30 90 36 98 Q42 106 48 104 Q80 100 108 106 Q112 130 106 148 Q106 162 116 164 ZM74 144 Q82 128 94 116 Q94 112 92 112 Q76 116 60 124 Q48 134 58 144 Q66 152 74 144 ZM180 148 Q188 154 194 138 Q196 126 178 120 Q158 116 152 116 Q150 116 150 118 Q166 138 180 148 Z" /><glyph glyph-name="" unicode="&#x5151;" d="M166 162 Q176 158 174 148 Q164 132 148 124 Q164 124 176 128 Q192 130 192 116 Q186 98 182 76 Q180 64 170 70 Q160 74 148 74 Q146 64 152 50 Q160 42 170 38 Q198 28 230 36 Q236 38 250 46 Q252 38 234 12 Q222 -2 188 4 Q152 14 136 34 Q130 40 128 52 L128 74 L116 74 Q112 56 108 50 Q94 26 64 12 Q42 4 24 4 Q14 4 8 22 Q10 26 22 26 Q32 26 48 28 Q62 32 74 38 Q82 42 90 52 Q96 60 100 74 Q90 74 76 68 Q66 64 64 76 Q64 94 56 110 Q54 128 68 128 Q82 124 102 126 L136 126 Q144 132 152 156 Q156 166 166 162 ZM96 156 Q100 148 102 138 Q104 130 96 132 Q84 136 74 150 Q74 162 84 162 Q90 164 96 156 ZM166 114 Q120 118 80 112 Q78 98 84 86 Q164 82 166 88 Q172 112 166 114 Z" /><glyph glyph-name="" unicode="&#x5165;" d="M94 150 Q106 142 114 132 Q152 94 194 68 Q252 44 250 40 Q246 30 230 18 Q204 6 182 32 Q158 60 128 94 Q124 96 110 78 Q90 50 60 30 Q36 14 20 24 Q4 38 16 40 Q46 48 70 66 Q96 86 108 112 Q94 126 84 132 Q74 138 80 148 Q86 154 94 150 Z" /><glyph glyph-name="" unicode="&#x5168;" d="M80 100 Q108 96 154 98 Q176 98 176 88 Q176 82 166 82 Q150 84 134 84 L134 64 L160 64 Q178 62 180 58 Q178 50 170 52 L134 52 L134 28 Q172 28 204 26 Q212 26 212 20 Q212 12 204 12 L158 12 Q90 14 52 8 Q40 4 40 14 Q42 26 52 30 Q80 24 112 28 L112 52 Q88 52 72 48 Q62 46 62 54 Q66 64 76 66 Q88 62 112 66 L112 84 Q94 86 76 82 Q70 82 70 90 Q72 96 80 100 ZM120 160 Q128 160 132 152 Q132 148 130 146 Q198 100 252 96 Q252 90 232 76 Q212 64 196 80 Q182 92 170 100 Q140 122 120 134 Q100 116 70 96 Q56 88 46 82 Q30 76 20 78 Q8 82 8 92 Q12 94 20 96 Q48 104 74 120 Q94 132 108 150 Q114 160 120 160 Z" /><glyph glyph-name="" unicode="&#x516b;" d="M98 124 Q106 126 108 118 Q108 110 102 100 Q82 70 52 52 Q24 36 14 50 Q10 56 8 62 Q10 66 28 70 Q70 84 98 124 ZM132 132 Q140 138 154 122 Q188 86 222 70 Q236 64 248 58 Q242 46 236 40 Q218 26 200 44 Q184 64 158 92 Q148 102 140 110 Q126 124 132 132 Z" /><glyph glyph-name="" unicode="&#x516c;" d="M128 104 Q136 100 138 92 Q142 86 132 80 Q110 66 90 48 Q86 42 90 40 Q98 34 104 30 Q116 22 134 30 Q150 40 152 50 Q136 60 136 68 Q134 74 142 74 Q152 76 164 68 Q200 42 204 32 Q204 24 194 24 Q186 26 164 42 Q162 28 144 14 Q124 6 106 10 Q96 14 88 20 Q70 32 62 28 Q50 22 46 34 Q46 46 56 50 Q94 66 112 102 Q118 112 128 104 ZM8 112 Q14 112 26 114 Q62 118 98 146 Q102 148 106 144 Q108 140 104 136 Q80 108 50 90 Q34 84 26 86 Q8 96 8 112 ZM154 144 Q172 134 192 124 Q230 108 250 106 Q222 60 198 84 Q170 114 136 140 Q132 146 138 150 Q144 154 154 144 Z" /><glyph glyph-name="" unicode="&#x5173;" d="M104 144 Q108 134 112 126 L150 126 Q150 142 156 156 Q162 166 172 158 Q182 152 180 142 Q176 138 164 126 L174 126 Q190 126 208 124 Q214 120 208 112 Q202 110 194 110 Q162 112 132 110 Q142 106 138 90 Q240 88 252 84 Q234 46 210 60 Q166 72 134 72 Q128 38 100 18 Q62 -4 32 16 Q28 24 36 24 Q102 28 108 72 Q62 70 18 58 Q4 54 6 68 Q16 86 30 86 Q64 84 112 88 Q114 100 112 110 Q78 112 50 106 Q38 102 44 114 Q50 126 62 126 Q74 124 98 124 Q74 140 80 152 Q94 166 104 144 ZM158 60 Q186 38 216 14 Q222 4 208 6 Q176 24 150 36 Q136 46 142 58 Q150 64 158 60 Z" /><glyph glyph-name="" unicode="&#x5174;" d="M86 142 Q86 126 96 92 Q122 94 150 90 L160 108 Q170 128 174 144 Q176 154 186 150 Q200 146 200 136 Q198 126 190 118 Q178 102 164 90 L192 88 Q248 86 248 80 Q244 74 236 64 Q224 54 206 60 Q190 64 176 68 Q158 72 144 74 Q116 76 82 76 Q46 70 18 62 Q6 60 10 74 Q20 90 34 86 Q60 88 82 92 Q56 114 58 140 Q62 148 68 150 Q82 152 86 142 ZM120 162 Q128 162 134 158 Q140 154 138 142 Q136 128 134 118 Q132 108 126 100 Q122 100 118 116 Q114 134 112 150 Q114 160 120 162 ZM104 60 Q112 56 108 48 Q94 30 68 16 Q56 10 44 6 Q28 2 34 10 Q42 16 48 20 Q60 30 72 42 Q80 50 88 60 Q94 66 104 60 ZM160 62 Q170 48 192 30 Q204 20 218 10 Q224 4 210 4 Q174 14 144 44 Q138 50 144 58 Q152 68 160 62 Z" /><glyph glyph-name="" unicode="&#x5185;" d="M220 82 Q220 44 224 30 Q226 16 216 10 Q200 0 196 10 Q194 56 196 98 Q196 110 186 112 L142 114 L140 104 Q162 88 190 60 Q194 50 184 50 Q168 58 152 68 Q138 80 134 88 Q128 76 120 64 Q108 50 92 48 Q86 48 80 52 Q74 56 80 60 Q96 68 104 76 Q116 92 120 114 Q76 112 74 106 Q74 78 70 56 Q68 46 62 32 Q48 12 30 14 Q16 16 12 20 Q8 28 18 30 Q38 38 48 52 Q58 76 52 98 Q50 108 48 116 Q42 128 58 132 Q66 130 72 126 Q94 124 120 128 Q122 142 118 150 Q116 160 130 160 Q138 158 140 154 Q146 146 144 128 Q180 124 194 128 Q198 130 204 132 Q210 132 218 126 Q224 116 222 110 Q220 102 220 82 Z" /><glyph glyph-name="" unicode="&#x51b0;" d="M140 164 Q162 168 158 132 L158 106 Q172 116 182 136 Q188 148 198 142 Q208 134 202 124 Q182 104 168 98 Q204 72 248 58 Q240 46 232 40 Q216 28 202 40 Q180 64 158 88 Q158 66 160 42 Q162 -4 124 4 Q112 8 100 22 Q94 32 108 26 Q140 14 136 50 Q136 106 132 150 Q132 164 140 164 ZM28 120 Q24 134 38 138 Q44 140 56 124 Q64 112 70 108 Q74 102 64 104 Q30 108 28 120 ZM18 68 Q44 78 74 92 Q86 90 70 76 Q58 64 46 54 Q18 32 10 44 Q0 60 18 68 ZM88 122 Q104 116 118 124 Q138 124 128 96 Q104 48 70 32 Q62 30 56 30 Q28 36 60 48 Q94 64 112 104 Q116 112 84 104 Q74 102 76 114 Q76 120 88 122 Z" /><glyph glyph-name="" unicode="&#x51c6;" d="M158 118 Q174 134 158 132 L138 132 Q128 124 120 118 L158 118 ZM142 160 Q156 168 156 154 L150 146 Q156 142 178 144 Q186 146 190 138 Q196 134 190 128 Q186 128 174 118 L218 118 Q232 112 222 106 Q200 104 176 104 L176 90 L200 90 Q210 90 216 86 Q220 78 212 76 L176 76 L176 62 L206 62 Q214 62 216 54 Q218 46 208 48 L176 48 L176 36 Q230 36 248 34 Q236 4 216 10 Q182 20 120 18 Q122 2 110 2 Q98 2 96 12 Q100 58 98 102 Q86 98 78 106 Q70 114 76 116 Q118 136 142 160 ZM30 144 Q36 148 42 144 Q64 128 72 124 Q82 116 48 116 Q24 118 22 130 Q20 140 30 144 ZM80 88 Q86 92 84 82 Q58 44 30 34 Q18 32 12 46 Q10 58 26 64 Q54 74 80 88 ZM120 104 L120 90 L152 90 L152 104 L120 104 ZM120 76 L120 62 L152 62 L152 76 L120 76 ZM120 48 L120 36 L152 36 L152 48 L120 48 Z" /><glyph glyph-name="" unicode="&#x51cc;" d="M116 142 L136 142 L136 156 Q138 164 146 164 Q158 162 158 154 L158 144 L170 144 Q200 140 200 138 Q200 136 198 134 Q190 132 170 132 L158 132 L158 122 L182 122 Q218 120 218 116 Q216 110 212 110 L182 110 L192 102 Q216 88 216 86 L214 82 Q202 84 182 94 Q170 102 166 108 L140 108 Q126 96 116 88 Q104 78 94 76 Q86 76 88 80 Q106 90 122 108 Q104 106 88 102 Q82 100 82 106 Q86 118 96 120 Q100 120 108 118 Q120 118 136 120 L136 132 Q112 132 100 128 Q92 126 94 134 Q96 140 106 144 Q112 144 116 142 ZM138 92 Q142 100 150 100 Q160 96 158 84 L174 84 Q186 80 186 72 Q180 62 168 50 Q182 42 200 38 Q220 34 242 34 Q252 34 248 28 Q230 10 216 4 Q208 0 182 18 Q168 28 156 38 Q134 24 120 16 Q92 2 78 10 Q68 18 70 22 Q70 24 78 24 Q112 24 142 48 Q138 52 130 60 Q106 40 88 38 Q82 40 84 44 Q112 60 138 92 ZM138 68 Q144 66 154 58 Q166 66 160 72 Q154 78 148 76 L138 68 ZM36 138 Q42 140 46 136 Q56 128 66 122 Q78 114 80 110 Q76 106 58 106 Q42 108 34 114 Q24 122 28 130 Q32 136 36 138 ZM78 80 Q84 82 84 76 Q78 68 66 56 Q52 44 40 36 Q26 30 18 40 Q16 46 18 50 Q22 56 26 58 Q50 66 78 80 Z" /><glyph glyph-name="" unicode="&#x51d1;" d="M132 132 Q106 130 90 128 Q82 128 84 134 Q90 142 100 144 Q110 140 132 142 Q134 154 140 160 Q154 162 156 150 L156 142 L202 142 Q206 140 206 138 Q206 132 190 132 L154 132 L152 124 Q198 124 196 118 Q194 112 186 114 L150 114 L146 106 L194 106 Q210 106 212 102 Q216 96 200 94 L182 94 Q218 70 250 66 Q238 44 224 44 Q216 44 202 56 Q184 72 164 94 L140 94 Q136 86 128 78 L166 78 Q176 76 176 70 Q172 66 158 66 Q158 62 156 56 Q180 56 194 52 Q196 42 184 42 Q174 44 154 44 Q136 14 112 6 Q102 2 88 6 Q84 8 88 12 Q118 24 132 44 Q120 44 108 42 Q104 40 102 44 Q104 50 108 54 Q122 56 136 56 Q140 58 140 66 Q134 66 124 64 Q118 64 124 74 Q106 56 88 54 Q72 56 74 62 Q108 76 118 94 Q100 94 84 90 Q76 90 78 98 Q82 106 94 106 L124 106 Q128 110 128 114 Q106 114 100 112 Q96 112 96 116 Q100 122 104 124 Q108 124 110 122 L130 124 L132 132 ZM76 110 Q80 106 72 104 Q36 100 22 110 Q16 116 20 126 Q26 136 32 132 Q52 122 76 110 ZM80 76 Q76 62 30 36 Q10 28 8 42 Q8 50 12 54 Q30 62 60 74 Q68 78 76 80 Q80 82 80 76 ZM160 34 Q166 38 172 34 Q194 22 208 8 Q212 2 206 2 Q188 6 174 12 Q164 16 156 24 Q154 30 160 34 Z" /><glyph glyph-name="" unicode="&#x51e0;" d="M86 154 Q94 146 116 148 Q138 148 150 154 Q166 156 168 142 Q160 128 158 102 Q156 82 162 64 Q170 46 200 42 Q216 42 246 48 Q246 42 238 28 Q220 2 196 10 Q182 14 162 26 Q140 40 138 66 Q138 100 140 126 Q140 130 134 132 Q100 136 98 130 L98 86 Q96 66 88 52 Q64 14 32 14 Q12 16 8 32 Q10 36 16 36 Q40 34 64 60 Q78 78 78 108 Q78 124 74 142 Q74 154 86 154 Z" /><glyph glyph-name="" unicode="&#x51e1;" d="M96 124 L98 100 Q120 96 130 86 L126 130 Q118 136 106 136 Q96 136 96 124 ZM84 152 Q96 148 124 150 Q132 150 140 154 Q158 156 154 136 Q148 124 148 106 Q148 76 160 62 Q178 40 198 38 Q222 34 246 48 Q242 28 236 22 Q216 -2 186 8 Q140 26 130 78 Q128 64 114 72 Q106 80 96 86 Q90 46 66 26 Q36 4 14 32 Q6 42 16 42 Q52 34 72 66 Q80 84 78 112 Q76 128 72 138 Q66 156 84 152 Z" /><glyph glyph-name="" unicode="&#x51e4;" d="M90 100 Q82 98 92 114 Q96 118 100 116 Q124 112 142 118 Q156 122 160 108 Q162 136 150 136 L104 136 Q76 136 74 124 Q82 64 62 34 Q56 26 52 22 Q32 6 16 16 Q6 26 12 28 Q46 36 54 66 Q62 90 54 128 Q46 160 78 148 Q122 144 154 150 Q188 160 184 134 Q172 94 188 54 Q210 22 250 40 Q234 -2 208 4 Q178 12 164 58 Q158 82 160 104 Q154 92 146 82 Q138 72 132 64 Q148 46 162 34 Q168 20 154 26 Q140 34 120 54 Q102 34 82 32 Q66 32 72 40 Q90 46 110 64 Q100 72 86 86 Q84 94 92 96 Q96 98 100 94 Q112 82 120 74 Q128 84 132 94 Q136 104 122 104 Q104 106 90 100 Z" /><glyph glyph-name="" unicode="&#x51f0;" d="M102 98 Q100 90 106 88 Q140 88 142 92 L142 98 L102 98 ZM102 106 L142 106 Q144 114 134 116 L106 116 Q102 116 102 106 ZM86 58 Q80 56 78 62 Q82 72 92 72 Q116 70 164 70 Q166 66 166 64 Q166 60 162 60 L132 60 Q130 56 132 50 L146 50 Q158 48 158 44 Q156 40 132 40 Q130 32 134 30 Q158 28 172 26 Q180 20 172 14 Q148 18 126 18 Q94 20 76 12 Q68 12 70 18 Q74 28 82 30 Q86 30 92 28 Q102 28 112 30 Q114 34 112 40 Q98 40 90 38 Q86 40 86 42 Q88 50 96 52 Q102 50 112 50 Q114 58 112 62 Q96 62 86 58 ZM120 122 L138 122 Q144 126 148 128 Q156 128 162 118 Q158 106 158 84 Q158 74 144 76 Q136 78 128 80 L112 80 Q104 78 96 76 Q88 76 86 82 Q86 102 82 118 Q82 128 90 128 Q94 124 104 124 Q108 128 112 134 Q116 140 126 132 Q130 126 120 122 ZM52 140 Q48 152 60 156 Q66 154 86 148 Q112 150 140 150 Q152 150 164 148 Q174 154 182 158 Q200 156 196 142 Q192 140 188 94 Q188 62 206 40 Q222 28 246 44 Q250 44 246 36 Q234 2 212 4 Q186 8 174 44 Q170 68 170 94 L170 130 Q170 138 148 140 L92 140 Q76 140 74 130 Q76 114 76 98 Q74 58 62 38 Q46 14 26 14 Q2 18 8 28 Q12 30 18 30 Q50 36 58 84 Q58 118 52 140 Z" /><glyph glyph-name="" unicode="&#x51f6;" d="M126 110 Q142 136 154 160 Q158 166 166 160 Q174 158 174 148 Q172 138 164 124 Q154 112 140 96 L158 74 Q170 64 180 52 Q184 44 178 42 Q162 44 146 62 L124 84 Q108 68 92 58 Q82 52 70 48 Q56 46 58 54 Q66 60 74 64 Q98 80 112 96 Q76 126 74 140 Q74 152 82 154 Q92 156 96 148 Q110 130 126 110 ZM52 50 Q52 38 56 38 Q78 38 104 40 Q120 42 138 40 Q152 38 166 38 Q182 38 200 38 Q204 40 204 44 Q198 90 202 108 Q204 114 210 114 Q218 114 220 96 Q218 90 220 74 Q220 68 222 62 Q226 52 230 40 Q234 26 222 14 Q216 8 204 12 Q196 16 172 20 Q122 24 60 18 Q48 14 44 12 Q32 8 24 16 Q18 20 20 28 Q26 38 30 48 Q36 66 36 108 Q42 114 48 110 Q52 106 52 98 Q52 76 52 50 Z" /><glyph glyph-name="" unicode="&#x51fa;" d="M144 86 Q144 62 146 38 Q154 36 180 34 Q214 32 210 44 L210 68 Q210 78 222 72 Q224 70 226 66 Q224 40 232 34 Q238 24 232 16 Q220 6 216 10 Q198 20 148 20 Q80 24 42 12 Q38 10 34 14 Q26 26 28 30 Q34 36 36 52 Q40 74 44 74 Q46 76 52 72 Q60 66 56 54 Q54 48 52 42 Q50 36 60 36 Q100 36 118 38 L118 86 Q82 88 66 80 Q62 76 50 92 Q48 98 52 102 Q60 110 58 128 Q58 138 64 140 Q74 140 76 128 Q74 118 74 108 Q74 98 84 98 Q102 100 118 100 Q118 116 116 140 Q118 156 132 156 Q138 156 142 150 Q146 146 144 130 L144 100 L182 100 Q190 100 190 106 L190 134 Q188 142 202 138 Q210 134 210 124 Q206 110 212 102 Q214 98 216 92 Q216 88 210 82 Q204 78 200 80 Q190 86 174 86 L144 86 Z" /><glyph glyph-name="" unicode="&#x5206;" d="M116 104 Q144 98 168 96 Q192 98 186 74 Q178 34 158 16 Q140 4 126 10 Q98 28 108 32 Q136 22 154 40 Q160 48 168 68 Q174 80 150 86 Q140 88 126 88 Q142 82 134 72 Q106 34 48 14 Q32 8 20 14 Q4 28 14 32 Q50 26 92 58 Q114 76 116 90 Q94 90 80 86 Q66 84 70 96 Q82 110 94 110 Q102 106 116 104 ZM90 132 Q60 110 30 104 Q12 98 6 122 Q6 130 18 128 Q60 128 96 152 Q102 154 102 148 Q100 140 90 132 ZM132 144 Q126 148 130 154 Q138 160 144 156 Q202 120 244 116 Q222 84 200 100 Q164 130 132 144 Z" /><glyph glyph-name="" unicode="&#x5207;" d="M42 114 Q44 128 48 138 Q56 160 70 158 Q74 158 78 150 Q80 144 76 134 Q70 124 66 114 L108 114 Q112 114 112 108 Q112 102 92 98 Q74 96 64 96 Q62 80 66 72 Q70 66 82 68 Q94 70 106 74 Q112 76 112 68 Q112 48 80 46 Q52 46 46 54 Q42 60 40 68 L40 94 Q26 92 12 88 Q6 86 8 100 Q10 110 20 116 Q28 112 42 114 ZM166 138 Q186 130 214 128 Q234 128 240 114 Q242 108 238 100 Q230 82 222 64 Q208 34 190 20 Q182 14 174 10 Q158 4 144 10 Q128 20 126 30 Q128 34 130 32 Q136 30 142 28 Q156 24 172 36 Q206 66 212 100 Q212 106 202 112 Q188 118 184 110 Q162 58 110 26 Q80 8 58 10 Q42 14 46 20 Q46 22 82 34 Q150 72 160 120 Q136 126 116 118 Q108 116 112 128 Q122 144 134 144 Q156 142 166 138 Z" /><glyph glyph-name="" unicode="&#x5219;" d="M84 148 Q112 146 118 152 Q134 150 134 134 Q130 102 134 64 Q134 56 122 54 Q116 52 114 60 L114 112 Q116 134 100 134 L78 134 Q60 134 58 126 L58 88 Q60 54 44 56 Q38 58 38 66 Q44 110 36 144 Q40 156 52 154 Q62 144 84 148 ZM74 118 Q76 126 86 122 Q98 112 96 90 Q96 80 94 68 Q90 48 78 34 Q68 22 56 14 Q44 6 26 4 Q8 2 8 22 Q10 26 34 30 Q56 36 68 58 Q74 72 74 84 L74 118 ZM92 52 Q96 54 102 54 Q112 48 122 38 Q130 30 136 20 Q142 8 130 14 Q112 24 94 38 Q88 44 92 52 ZM158 130 Q162 142 176 134 Q182 128 182 120 Q178 98 180 74 Q182 66 170 62 Q162 60 160 68 L160 110 Q158 120 158 130 ZM212 162 Q228 160 230 148 Q226 132 226 114 Q226 68 228 38 Q226 22 216 14 Q206 4 188 4 Q176 6 164 14 Q150 26 152 32 Q168 24 182 22 Q200 22 202 38 Q204 50 204 62 L204 118 Q204 138 200 150 Q202 160 212 162 Z" /><glyph glyph-name="" unicode="&#x5229;" d="M110 154 Q118 158 122 158 Q130 154 134 144 Q136 136 124 136 Q110 134 102 134 L104 116 Q124 114 148 114 Q154 108 148 102 Q128 100 104 100 Q108 88 144 66 Q146 56 136 58 Q124 62 106 74 L106 16 Q104 8 92 6 Q84 4 82 8 L82 32 L82 74 Q56 46 28 36 Q20 36 12 40 Q4 48 8 52 Q26 58 48 70 Q78 88 80 100 Q50 100 34 94 Q26 94 28 102 Q32 112 40 116 Q46 114 50 114 L82 114 L82 132 Q56 130 42 134 Q34 140 42 142 Q80 146 110 154 ZM172 132 Q178 130 178 126 Q178 110 180 86 L180 62 Q174 54 168 54 Q162 56 162 64 L162 104 L160 128 Q162 136 172 132 ZM198 146 Q198 152 200 158 Q202 162 210 160 Q222 156 226 148 Q226 138 224 118 Q224 102 226 82 Q228 64 230 48 Q228 28 220 18 Q208 6 188 4 Q168 4 148 16 Q140 22 142 26 Q168 20 186 24 Q202 30 204 58 Q204 84 202 104 Q200 126 198 146 Z" /><glyph glyph-name="" unicode="&#x522e;" d="M134 152 Q144 144 136 138 Q120 134 98 132 Q96 124 98 112 L136 112 Q152 112 152 104 Q150 98 140 96 Q118 98 98 98 Q96 86 98 74 Q110 72 122 76 Q126 78 136 72 Q142 64 138 58 Q134 42 134 30 Q134 12 122 12 Q120 12 118 12 Q90 20 66 16 Q60 14 56 12 Q46 10 44 22 Q44 42 38 60 Q36 66 40 70 Q46 76 52 74 Q60 72 74 74 Q76 88 74 98 Q20 96 12 90 Q6 88 6 96 Q16 116 26 114 Q34 112 74 112 Q76 126 72 130 Q40 124 28 134 Q24 138 30 140 Q92 144 118 156 Q124 160 134 152 ZM110 56 Q86 62 64 56 Q62 32 68 32 Q88 30 104 32 Q114 30 110 56 ZM178 116 Q176 94 178 70 Q178 64 176 58 Q168 52 164 52 Q158 50 158 58 Q160 92 158 126 Q160 136 172 130 Q174 128 178 124 Q180 122 178 116 ZM228 40 Q232 4 194 2 Q164 4 152 22 Q152 26 154 26 Q174 20 190 24 Q202 28 204 54 Q208 106 198 144 Q192 158 204 158 Q224 156 226 140 Q224 132 224 118 Q222 80 228 40 Z" /><glyph glyph-name="" unicode="&#x5230;" d="M40 150 Q48 146 60 146 L140 146 Q156 144 150 136 Q148 132 136 130 L76 130 Q84 126 84 118 Q80 114 72 104 Q66 98 90 98 Q114 98 114 102 Q94 114 100 122 Q104 126 108 124 Q122 114 138 108 Q144 104 148 98 Q152 90 146 90 Q136 90 124 96 Q122 86 100 82 L100 70 Q116 68 136 68 Q144 68 144 64 Q146 58 136 58 Q116 58 100 56 L100 42 L146 42 Q156 36 136 32 Q102 30 64 26 Q38 24 20 16 Q12 10 10 18 Q12 28 14 34 Q18 40 24 40 Q50 40 80 42 L80 56 Q62 58 48 52 Q36 50 36 60 Q40 74 56 72 Q66 70 80 70 L80 84 Q70 90 60 88 Q56 86 48 84 Q40 84 40 92 Q38 102 48 106 Q72 116 70 130 Q46 130 32 124 Q24 122 24 130 Q26 150 40 150 ZM168 132 Q178 130 178 120 Q178 116 176 104 L176 64 Q178 56 168 54 Q160 52 158 62 Q160 76 160 102 Q160 112 158 126 Q158 134 168 132 ZM206 160 Q222 160 226 144 Q222 126 222 106 L222 56 Q222 48 224 34 Q226 30 226 24 Q222 4 190 2 Q158 8 148 26 Q148 32 152 30 Q164 22 188 24 Q202 26 200 42 L200 112 Q200 128 198 144 Q196 158 206 160 Z" /><glyph glyph-name="" unicode="&#x524d;" d="M92 134 Q84 144 80 148 Q74 156 92 162 Q98 164 102 160 Q104 148 110 134 Q124 134 148 136 Q154 152 158 160 Q164 164 170 162 Q176 160 178 154 Q178 144 164 136 Q182 134 200 134 Q252 132 252 128 Q250 124 242 116 Q226 104 218 108 Q186 120 136 122 Q44 120 16 110 Q8 108 10 114 Q16 130 28 136 Q50 134 92 134 ZM188 70 Q188 90 184 98 Q184 108 192 108 Q210 108 210 96 Q208 94 208 86 L208 46 Q210 36 210 30 Q208 18 202 12 Q190 4 180 6 Q148 12 140 32 Q140 34 162 26 Q174 24 182 32 Q190 38 188 50 L188 70 ZM146 76 Q146 88 144 96 Q144 102 154 102 Q164 100 164 92 L164 58 Q164 44 150 44 Q146 46 146 76 ZM118 110 Q126 108 126 100 Q124 86 124 74 L124 18 Q122 12 112 10 Q104 10 104 16 L104 48 L72 48 Q66 30 52 18 Q38 8 24 10 Q8 16 8 22 Q8 24 16 26 Q58 36 56 74 Q56 86 52 98 Q50 110 62 110 Q66 108 74 106 L102 106 Q110 110 118 110 ZM74 60 L104 60 L104 72 L76 72 L74 60 ZM76 84 L104 84 L104 92 Q104 94 102 96 L80 96 Q76 94 76 84 Z" /><glyph glyph-name="" unicode="&#x5265;" d="M54 160 Q70 154 118 156 Q136 158 134 144 Q132 132 132 106 Q146 106 156 104 Q160 98 154 96 L102 96 L102 68 Q126 58 148 40 Q154 34 146 32 Q126 40 102 50 L102 28 Q102 20 96 14 Q86 6 70 10 Q52 18 48 28 Q48 30 66 26 Q82 24 82 34 L82 62 Q66 52 52 42 Q44 36 38 34 Q26 32 20 44 Q18 50 24 52 Q38 54 62 62 Q74 68 82 74 L82 96 Q44 96 18 88 Q14 88 14 96 Q18 108 26 110 Q38 106 116 108 L116 120 Q86 120 58 118 Q50 118 50 124 Q50 128 58 132 Q70 130 116 130 Q118 144 108 144 Q56 144 46 142 Q40 140 40 148 Q44 156 54 160 ZM68 72 Q68 70 62 68 Q52 68 44 72 Q34 78 36 84 Q40 94 48 90 Q56 80 68 72 ZM130 92 Q136 94 140 86 Q144 82 138 76 Q126 68 114 68 Q104 68 108 72 Q120 80 130 92 ZM174 132 Q182 130 182 118 Q180 86 180 60 Q178 54 170 52 Q162 52 160 60 Q164 102 160 124 Q162 134 174 132 ZM214 162 Q224 158 224 146 Q222 58 226 48 Q226 22 212 12 Q194 2 176 8 Q154 20 152 28 Q152 30 170 26 Q190 22 196 32 Q200 40 200 54 L200 154 Q202 164 214 162 Z" /><glyph glyph-name="" unicode="&#x529b;" d="M172 128 Q192 118 226 118 Q228 118 232 114 Q244 100 238 92 Q226 76 214 48 Q198 22 180 12 Q164 4 150 6 Q132 12 118 30 Q116 36 120 36 Q134 32 148 30 Q160 32 170 38 Q192 52 204 84 Q208 96 192 104 Q174 110 162 110 Q142 82 130 68 Q90 32 54 14 Q40 8 32 10 Q10 18 10 24 Q10 28 16 30 Q58 34 106 74 Q130 98 138 114 Q108 116 82 116 Q72 114 64 112 Q56 110 58 118 Q68 142 82 140 Q86 138 90 136 Q104 132 148 132 Q154 140 156 152 Q156 158 158 160 Q162 164 168 162 Q174 160 180 154 Q184 150 182 142 Q178 134 172 128 Z" /><glyph glyph-name="" unicode="&#x529d;" d="M160 116 Q144 118 130 112 Q122 108 120 116 Q122 128 134 134 Q146 130 164 130 Q170 144 170 154 Q174 164 184 162 Q200 158 196 144 Q192 134 188 126 Q208 122 226 128 Q240 128 242 112 Q242 104 236 90 Q232 82 224 64 Q216 46 200 22 Q188 8 170 4 Q144 0 130 24 Q128 30 134 30 Q154 22 170 30 Q186 42 198 66 Q208 86 210 96 Q212 104 204 110 Q196 114 182 114 Q172 94 156 70 Q138 46 118 30 Q78 2 60 12 Q52 20 62 24 Q76 28 92 36 Q118 50 134 74 Q150 94 160 116 ZM46 138 Q72 132 100 138 Q110 136 108 122 Q106 112 102 102 Q94 84 86 74 Q94 66 106 56 Q110 48 100 48 Q84 56 74 64 Q64 54 52 48 Q38 40 28 38 Q14 36 10 52 Q24 54 40 60 Q52 64 62 74 Q48 86 38 100 Q36 106 38 108 Q46 116 56 108 Q62 98 74 84 Q86 98 88 112 Q90 122 76 122 Q54 124 40 116 Q32 114 32 120 Q36 136 46 138 Z" /><glyph glyph-name="" unicode="&#x529f;" d="M158 124 L162 138 Q164 146 162 154 Q164 160 172 158 Q194 152 188 140 L182 122 Q192 120 208 118 Q222 120 228 114 Q242 102 238 96 Q234 84 230 72 Q224 58 218 46 Q210 32 202 22 Q192 14 180 10 Q162 6 148 18 Q140 26 136 34 Q136 38 142 36 Q146 32 160 30 Q180 26 202 66 Q216 96 208 100 Q198 106 178 110 Q172 88 154 64 Q142 50 124 34 Q96 10 68 6 Q54 6 52 16 Q58 20 62 22 Q94 36 124 60 Q150 84 156 110 Q140 108 128 106 Q110 102 116 118 Q122 126 130 128 Q134 128 138 128 Q144 124 158 124 ZM80 116 Q78 100 80 80 Q98 80 108 82 Q120 84 120 78 Q122 72 110 70 Q70 60 22 44 Q8 40 4 52 Q2 66 12 68 Q36 70 56 78 Q60 90 56 116 Q42 116 28 108 Q14 106 22 124 Q28 134 38 134 Q44 132 50 132 Q64 130 78 132 Q112 130 112 124 Q114 116 106 116 Q86 118 80 116 Z" /><glyph glyph-name="" unicode="&#x52a8;" d="M76 20 Q92 24 104 28 Q122 36 138 50 Q150 60 168 84 Q178 98 184 116 Q160 118 142 112 Q132 108 132 116 Q134 132 146 134 Q162 128 190 128 Q194 144 198 158 Q202 164 210 160 Q220 156 220 146 Q218 136 212 124 Q222 120 228 122 Q250 120 246 102 Q232 74 220 42 Q216 32 202 16 Q182 -2 162 8 Q150 16 148 26 Q148 30 162 24 Q178 22 192 40 Q202 54 208 66 Q214 80 220 96 Q224 108 206 112 Q198 94 184 72 Q172 56 156 40 Q142 26 130 20 Q116 10 102 8 Q86 6 78 14 Q74 18 76 20 ZM96 106 L136 106 Q142 102 142 98 Q142 92 130 90 L84 90 Q66 74 62 60 Q70 54 82 52 Q94 54 100 62 Q92 68 86 72 Q82 78 88 82 Q98 88 106 78 Q116 66 126 48 Q126 44 122 44 Q114 50 110 54 Q98 38 80 36 Q64 38 52 46 Q46 48 38 42 Q28 40 26 50 Q28 58 36 64 Q48 68 64 92 Q38 94 18 82 Q10 82 10 90 Q14 104 26 108 Q44 104 96 106 ZM90 142 Q106 142 116 140 Q122 138 124 134 Q124 128 118 126 L76 126 Q62 126 52 124 Q44 122 42 132 Q44 142 54 144 Q66 142 90 142 Z" /><glyph glyph-name="" unicode="&#x52a9;" d="M48 152 Q54 150 62 148 Q78 146 96 148 Q106 154 116 150 Q124 142 122 134 Q118 124 118 112 L118 62 Q134 64 134 56 Q162 82 174 112 Q158 112 142 110 Q130 108 130 114 Q136 134 148 132 Q158 128 180 128 Q184 142 186 152 Q188 168 206 156 Q216 146 210 134 L204 124 Q220 120 236 112 Q248 108 240 80 Q234 54 218 28 Q202 4 182 4 Q158 6 148 26 Q148 30 150 30 Q176 20 188 28 Q196 36 200 42 Q214 66 218 88 Q224 106 198 108 Q184 84 170 66 Q148 38 118 18 Q98 8 86 16 Q78 24 84 26 Q92 28 102 32 Q112 38 130 50 L78 42 Q60 40 40 34 Q28 30 18 28 Q12 26 6 38 Q6 46 12 50 Q28 54 40 56 L38 100 Q36 122 34 140 Q36 154 48 152 ZM62 118 Q82 116 96 118 Q100 128 96 134 Q84 136 64 134 Q56 128 62 118 ZM62 88 Q78 84 98 88 Q102 94 98 104 Q80 108 62 104 Q54 96 62 88 ZM64 72 Q56 66 64 58 L96 60 Q100 66 98 72 Q80 78 64 72 Z" /><glyph glyph-name="" unicode="&#x52b3;" d="M210 142 Q220 138 212 134 Q200 132 168 132 Q166 120 158 120 Q148 120 146 132 L110 132 Q108 124 98 120 Q88 120 86 132 L64 132 Q58 132 52 130 Q44 128 44 136 Q50 146 62 148 Q72 144 86 144 L86 158 Q88 166 96 166 Q102 164 104 162 Q110 156 110 144 L146 144 L146 156 Q148 166 160 164 Q170 160 168 144 Q190 144 210 142 ZM94 92 Q110 90 138 86 L146 96 Q150 102 160 100 Q168 96 166 90 Q164 86 160 82 Q174 78 194 72 Q206 68 204 60 Q204 54 198 42 Q188 24 174 14 Q152 0 130 10 Q114 22 118 28 Q128 24 138 22 Q156 20 168 32 Q186 54 176 62 Q166 70 152 72 Q142 62 126 50 Q98 30 62 18 Q48 14 38 12 Q30 10 14 18 Q2 26 8 28 Q30 30 52 36 Q92 46 120 64 Q130 72 130 76 Q126 78 114 78 Q100 78 80 74 Q74 72 74 78 Q76 82 80 86 Q84 90 94 92 ZM40 118 Q48 116 58 114 Q106 118 146 118 Q196 114 206 114 Q218 120 222 120 Q228 118 230 114 Q234 106 232 100 Q230 82 228 66 Q224 58 218 66 Q216 72 216 78 Q214 94 210 98 Q194 104 128 106 Q104 106 84 104 Q54 102 48 94 Q44 86 42 72 Q40 66 34 66 Q30 68 30 72 Q28 90 28 106 Q28 116 40 118 Z" /><glyph glyph-name="" unicode="&#x5306;" d="M112 146 Q108 140 102 136 Q114 132 138 130 Q180 128 200 132 Q206 138 214 136 Q224 132 230 122 Q234 114 230 100 Q224 76 218 60 Q206 32 184 12 Q164 0 146 10 Q140 14 132 24 Q128 28 126 34 Q126 36 128 36 Q134 34 142 30 Q148 26 156 26 Q164 28 172 36 Q178 42 184 50 Q192 62 196 72 Q200 84 204 96 Q210 114 176 116 Q164 92 152 78 Q166 66 172 58 Q176 48 166 48 Q152 54 140 62 Q116 40 82 24 Q60 14 40 12 Q28 14 22 22 Q18 28 32 30 Q90 42 124 74 Q114 82 106 88 Q84 72 68 66 Q60 62 54 60 Q46 58 40 58 Q30 60 36 66 Q48 70 60 76 Q76 84 92 96 Q86 98 82 104 Q84 110 92 112 Q98 108 104 108 Q112 112 116 120 Q104 124 90 122 Q86 118 78 114 Q66 106 52 98 Q40 92 34 92 Q28 90 22 94 Q18 98 24 100 Q46 112 62 126 Q74 136 82 146 Q86 154 92 162 Q94 164 96 164 Q102 164 106 162 Q116 154 112 146 ZM136 118 Q128 106 120 100 Q128 94 136 88 Q146 100 156 118 L136 118 Z" /><glyph glyph-name="" unicode="&#x5316;" d="M152 96 Q170 104 188 122 Q194 130 202 136 Q208 138 212 134 Q222 122 202 106 Q176 84 152 76 Q152 58 162 50 Q180 36 214 38 Q224 40 238 46 Q250 52 250 44 Q240 22 228 10 Q218 4 210 4 Q182 4 158 20 Q134 40 130 66 Q116 64 100 62 Q88 64 96 68 Q110 74 128 82 Q130 106 130 124 L130 146 Q134 156 140 158 Q144 158 148 158 Q156 158 160 146 Q160 144 158 140 Q154 122 152 96 ZM100 148 Q96 138 80 118 L80 10 Q76 6 70 4 Q54 4 54 12 Q56 24 56 44 Q56 102 54 104 Q42 96 32 92 Q16 90 6 110 Q4 114 8 116 Q44 124 82 150 Q92 158 98 158 Q102 154 100 148 Z" /><glyph glyph-name="" unicode="&#x5317;" d="M82 130 Q82 162 96 158 Q110 156 108 130 Q106 78 108 26 Q108 12 96 10 Q86 8 82 18 L82 38 Q54 26 26 20 Q10 14 10 28 Q10 44 28 46 Q80 50 82 58 Q84 74 82 92 Q56 96 30 90 Q18 88 22 100 Q32 114 40 114 Q48 108 78 108 Q84 106 82 130 ZM132 154 Q134 162 146 160 Q156 158 154 126 L154 96 Q180 110 208 130 Q218 136 224 124 Q226 114 220 110 Q198 96 154 86 L154 64 Q154 50 166 46 Q188 40 242 44 Q250 46 248 38 Q234 6 202 8 Q184 10 152 22 Q132 30 130 56 Q132 90 130 128 Q130 150 132 154 Z" /><glyph glyph-name="" unicode="&#x5341;" d="M110 112 Q112 140 108 150 Q110 166 126 160 Q138 154 138 142 Q136 136 136 112 Q170 108 196 108 Q222 110 242 108 Q250 108 244 98 Q238 88 230 82 Q220 76 210 78 Q180 90 136 92 L136 22 Q138 16 132 8 Q128 0 118 2 Q110 4 110 16 L110 92 Q56 92 18 84 Q8 82 10 92 Q14 102 20 106 Q32 114 42 110 Q80 104 110 112 Z" /><glyph glyph-name="" unicode="&#x5343;" d="M180 162 Q184 164 192 160 Q196 158 202 150 Q204 146 198 142 Q174 132 140 128 L140 104 Q222 100 246 100 Q250 94 232 76 Q220 66 212 70 Q202 72 176 82 Q156 86 140 86 L140 18 Q138 12 134 4 Q128 0 122 0 Q112 2 112 14 Q114 30 114 86 Q52 88 18 74 Q10 72 12 80 Q24 104 36 104 Q40 104 48 102 Q88 102 114 104 L114 126 L66 126 Q44 126 38 136 Q38 140 42 140 Q52 138 64 138 Q138 136 180 162 Z" /><glyph glyph-name="" unicode="&#x5347;" d="M32 110 Q56 106 86 108 L86 128 Q70 126 48 130 Q34 134 40 140 Q92 142 120 156 Q128 156 132 148 Q134 142 128 138 Q118 132 106 130 L106 108 Q122 106 142 108 L142 150 Q144 162 160 158 Q170 154 170 146 Q166 130 166 108 Q208 102 242 104 Q252 104 248 94 Q234 60 192 82 Q180 86 166 88 Q166 58 168 30 Q170 2 156 4 Q140 2 142 20 Q146 56 144 90 Q120 94 106 88 Q104 72 100 58 Q82 16 48 18 Q32 20 26 26 Q20 38 40 38 Q70 42 80 64 Q86 80 86 90 Q54 92 24 82 Q12 78 12 88 Q10 90 16 100 Q22 110 32 110 Z" /><glyph glyph-name="" unicode="&#x534e;" d="M148 162 Q154 162 156 154 Q152 144 150 130 Q160 134 174 142 Q182 150 192 150 Q198 150 202 144 Q204 140 200 136 Q174 124 152 116 Q156 108 180 104 Q198 102 220 108 Q222 108 226 104 Q228 98 220 92 Q204 86 184 86 Q154 88 138 102 L134 110 Q124 108 116 106 Q100 106 100 112 Q104 116 122 120 L132 124 Q132 140 134 154 Q138 162 148 162 ZM34 74 Q66 72 112 74 L112 92 Q114 96 122 96 Q136 96 138 84 L138 74 Q210 66 250 72 Q234 32 216 42 Q182 52 138 56 L138 8 Q136 2 122 0 Q110 0 110 10 Q112 24 112 56 Q48 56 18 48 Q10 46 12 56 Q16 74 34 74 ZM104 162 Q108 164 110 158 Q110 150 94 140 L94 88 Q90 82 82 82 Q74 82 74 86 L74 128 Q58 118 40 116 Q32 114 24 120 Q14 132 14 136 Q14 140 34 142 Q78 148 104 162 Z" /><glyph glyph-name="" unicode="&#x5356;" d="M122 164 Q138 166 140 156 L140 144 L182 144 Q202 142 202 138 Q202 132 196 132 L140 132 L140 122 Q180 118 204 122 Q220 124 220 108 Q216 98 216 78 Q214 70 206 72 Q202 74 202 78 Q204 92 202 102 Q200 108 192 108 Q142 114 90 110 Q60 108 42 102 Q32 102 36 112 Q42 122 52 124 Q80 120 116 122 L116 132 Q86 132 66 130 Q56 128 56 134 Q58 146 68 148 Q86 142 116 144 L116 158 Q116 162 122 164 ZM28 66 Q36 62 46 62 Q80 64 128 66 Q132 88 130 102 Q132 108 138 108 Q152 108 152 94 Q152 84 150 66 Q168 64 194 64 Q242 64 250 62 Q252 52 242 40 Q230 30 220 34 Q186 52 142 52 Q134 32 112 16 Q92 2 68 2 Q50 4 42 16 Q40 26 54 22 Q76 18 96 26 Q118 38 124 52 Q96 52 58 48 Q32 44 16 38 Q10 36 8 44 Q16 64 28 66 ZM86 106 Q104 102 122 92 Q122 88 110 88 Q92 88 80 90 Q72 92 74 100 Q78 108 86 106 ZM66 86 Q86 84 108 76 Q108 74 106 72 Q86 68 64 70 Q54 70 54 78 Q56 88 66 86 ZM174 34 Q194 22 216 8 Q224 0 210 2 Q184 8 160 18 Q140 26 142 38 Q150 54 174 34 Z" /><glyph glyph-name="" unicode="&#x5357;" d="M110 156 Q114 164 122 164 Q138 162 136 150 L136 138 Q204 134 240 134 Q254 134 248 126 Q234 114 226 110 Q218 106 206 112 Q180 122 136 124 L136 110 Q174 104 188 110 Q194 110 202 104 Q206 100 204 94 Q200 66 204 18 Q206 8 190 2 Q188 2 186 2 Q180 2 180 14 Q178 50 182 84 Q182 94 156 96 Q148 88 150 80 L168 78 Q176 72 166 68 Q150 68 134 68 L134 56 L154 56 Q170 54 170 50 Q172 46 166 42 Q156 44 150 44 L134 44 L134 20 Q136 10 126 8 Q116 6 112 18 L112 44 Q94 44 78 40 Q70 40 72 48 Q74 58 82 58 Q96 56 112 56 L112 68 Q96 70 86 66 Q78 64 78 72 Q80 80 86 82 Q92 78 94 80 Q96 92 88 94 Q70 94 70 86 Q72 64 68 38 Q66 28 58 18 Q50 10 40 6 Q32 4 22 10 Q14 16 18 20 Q40 28 48 44 Q56 58 54 82 Q52 90 52 96 Q50 110 62 110 Q66 106 82 106 Q98 108 112 108 L112 124 Q48 126 16 112 Q8 112 10 122 Q18 134 30 138 Q42 132 110 138 L110 156 ZM132 80 Q138 86 138 96 Q122 98 108 94 Q106 86 112 80 Q122 82 132 80 Z" /><glyph glyph-name="" unicode="&#x5360;" d="M134 152 L134 138 Q202 134 240 134 Q246 130 230 116 Q216 104 194 114 Q172 120 134 118 L134 94 Q166 90 182 90 Q214 100 210 74 Q204 54 204 34 Q204 -2 164 16 Q120 22 80 16 Q50 4 48 30 Q48 50 42 78 Q40 102 70 92 Q88 90 106 94 L106 148 Q106 164 120 164 Q134 164 134 152 ZM76 38 Q138 34 176 40 Q182 50 182 64 Q180 74 162 76 Q112 80 76 72 Q68 58 76 38 Z" /><glyph glyph-name="" unicode="&#x5366;" d="M66 122 Q44 122 34 118 Q28 118 28 124 Q30 134 38 136 Q50 132 66 136 L66 152 Q68 160 78 160 Q86 160 88 148 L88 136 L118 134 Q122 132 122 128 Q120 124 116 124 L88 122 L88 106 Q124 106 128 102 Q130 96 124 94 L88 94 L88 76 L118 76 Q122 74 122 72 Q120 66 112 64 L88 64 L88 46 L128 48 Q134 48 136 44 Q136 40 132 38 Q102 30 52 24 Q30 20 16 16 Q6 16 6 26 Q6 40 18 42 Q32 42 68 44 L68 64 Q48 64 38 60 Q30 56 30 64 Q32 74 38 76 L68 76 L68 94 Q48 92 22 84 Q14 80 14 88 Q14 96 18 102 Q22 108 30 108 Q34 108 38 106 L66 106 L66 122 ZM164 150 L164 114 Q190 98 220 84 Q250 70 250 68 Q244 58 236 50 Q224 40 214 46 Q182 80 164 96 L164 12 Q160 6 154 4 Q138 0 138 10 Q140 24 140 36 L140 120 Q140 138 138 152 Q138 162 146 162 Q160 160 164 150 Z" /><glyph glyph-name="" unicode="&#x5373;" d="M104 124 Q110 130 106 138 Q82 142 58 138 Q52 132 58 124 Q78 122 104 124 ZM58 112 Q54 106 58 98 Q78 94 104 98 Q110 104 104 112 Q78 114 58 112 ZM170 64 Q194 68 208 94 Q216 116 208 128 Q196 138 170 134 L170 64 ZM148 130 Q134 124 134 134 Q136 150 148 152 Q176 156 208 152 Q222 150 228 140 Q234 134 236 120 Q238 104 226 80 Q218 66 198 56 Q176 48 170 58 L170 10 Q168 4 158 2 Q146 0 146 18 Q150 86 148 130 ZM126 94 Q124 82 114 84 Q110 86 100 86 Q80 88 56 86 Q54 74 56 60 Q56 52 64 54 Q78 58 86 68 Q76 72 86 80 Q96 88 106 72 Q120 56 134 46 Q136 38 126 40 Q114 42 94 60 Q70 32 38 24 Q24 22 22 34 Q22 40 26 46 Q38 62 36 82 Q38 122 32 140 Q32 154 44 156 Q52 152 62 150 Q80 148 102 150 Q108 152 114 154 Q128 154 130 142 Q124 120 126 94 Z" /><glyph glyph-name="" unicode="&#x53bb;" d="M142 114 L142 94 L202 92 Q246 92 250 88 Q230 56 218 62 Q168 78 132 78 Q140 74 138 66 Q130 58 120 52 Q100 42 102 36 Q104 24 126 22 Q152 26 158 40 Q150 48 142 58 Q142 64 146 66 Q154 68 164 62 Q180 50 200 32 Q206 26 210 18 Q210 10 198 14 Q186 20 172 30 Q150 6 126 6 Q108 6 88 18 Q74 20 64 14 Q54 10 54 28 Q58 38 66 38 Q82 38 104 58 Q114 68 122 78 Q40 76 16 62 Q2 58 8 76 Q16 92 30 94 Q42 90 114 94 L114 114 Q88 114 62 108 Q52 104 50 112 Q50 120 60 130 Q82 124 114 128 L114 152 Q114 160 126 162 Q140 160 142 148 L142 128 L194 128 Q202 126 204 120 Q202 112 182 114 L142 114 Z" /><glyph glyph-name="" unicode="&#x53c8;" d="M76 152 Q86 150 98 150 Q112 152 128 152 Q138 150 148 150 Q152 152 158 156 Q176 158 180 142 Q180 132 174 120 Q162 96 150 78 Q188 54 226 44 Q248 38 248 36 Q248 30 232 18 Q210 0 192 16 Q182 24 172 34 Q150 54 136 62 Q128 56 120 48 Q90 26 72 20 Q40 2 14 16 Q6 24 14 26 Q82 38 120 74 Q94 100 72 104 Q64 102 66 112 Q70 120 74 122 Q78 126 88 120 Q110 106 134 90 Q142 100 148 118 Q148 130 132 136 Q102 138 80 134 Q70 130 64 126 Q58 126 56 132 Q58 142 64 148 Q70 154 76 152 Z" /><glyph glyph-name="" unicode="&#x53cb;" d="M104 120 Q64 118 46 112 Q40 108 40 118 Q40 122 44 128 Q52 138 60 136 Q84 134 108 136 Q110 148 110 158 Q110 166 118 164 Q128 162 134 154 Q138 146 134 136 L178 136 Q198 136 216 132 Q222 128 216 124 Q212 120 208 120 Q180 122 132 122 Q128 112 122 102 Q142 100 158 104 Q168 110 176 104 Q184 98 180 88 Q174 68 160 56 Q208 36 248 30 Q248 24 230 10 Q208 0 190 12 Q176 20 148 42 Q128 28 112 22 Q96 16 76 16 Q52 20 46 28 Q44 34 56 32 Q64 32 84 34 Q112 40 130 52 Q114 66 100 74 Q60 48 26 48 Q10 50 6 60 Q4 64 12 64 Q46 66 80 86 Q100 102 104 120 ZM118 90 Q114 88 110 82 Q132 72 144 64 Q152 72 158 84 Q160 90 148 90 L118 90 Z" /><glyph glyph-name="" unicode="&#x53cd;" d="M110 114 Q118 118 124 114 Q142 110 172 116 Q194 120 190 100 Q182 84 172 62 Q210 38 248 32 Q238 16 230 10 Q210 -2 198 8 Q178 30 160 46 Q122 14 76 14 Q50 18 64 26 Q108 32 146 56 Q122 78 106 80 Q102 82 106 88 Q114 98 126 92 Q138 82 156 68 Q174 104 160 104 Q130 104 102 94 Q92 92 98 104 Q104 112 110 114 ZM66 148 Q78 140 84 140 Q154 138 176 158 Q182 162 194 152 Q210 134 196 132 Q186 130 170 130 Q136 128 104 126 Q74 126 74 102 Q72 80 68 56 Q56 2 10 24 Q2 32 10 36 Q52 42 54 96 Q56 124 52 140 Q52 154 66 148 Z" /><glyph glyph-name="" unicode="&#x53d1;" d="M106 102 Q76 100 64 92 Q56 88 48 96 Q40 106 46 112 Q52 118 54 142 Q56 152 70 146 Q80 138 74 130 Q68 112 76 114 L106 116 Q108 136 104 154 Q102 164 118 162 Q130 160 130 146 Q128 126 128 116 L178 118 Q202 116 202 110 Q206 102 184 104 Q152 104 126 102 L124 94 Q142 92 162 96 Q178 96 172 80 Q170 68 160 56 Q210 32 250 32 Q230 -6 204 6 Q176 28 150 42 Q120 6 78 18 Q64 26 74 30 Q116 30 134 52 Q120 64 112 66 Q64 16 12 38 Q4 52 16 50 Q88 44 106 102 ZM144 64 L150 72 Q154 82 142 82 Q132 84 122 80 Q134 68 144 64 ZM168 156 Q184 148 174 136 Q150 124 146 128 Q142 132 156 154 Q160 158 168 156 Z" /><glyph glyph-name="" unicode="&#x53d6;" d="M56 54 L56 138 Q46 138 38 132 Q26 130 28 140 Q32 156 46 158 Q76 148 132 154 Q146 152 148 146 Q146 138 126 138 L126 16 Q128 6 114 4 Q106 2 106 14 L106 50 Q58 36 20 26 Q10 28 10 36 Q12 46 20 48 Q40 50 56 54 ZM72 138 Q68 130 72 122 Q88 118 106 122 Q110 130 106 138 Q86 142 72 138 ZM106 62 Q110 70 106 78 Q88 80 72 78 Q70 68 72 56 Q90 58 106 62 ZM158 138 Q178 132 202 138 Q214 138 214 124 Q210 102 194 76 Q228 46 252 40 Q252 34 236 24 Q224 16 214 28 Q196 50 182 62 Q166 46 148 38 Q134 32 128 42 Q128 46 136 48 Q156 58 170 72 Q152 90 138 98 Q136 104 138 106 Q146 116 158 102 Q168 96 180 86 Q188 100 190 112 Q190 120 178 122 Q158 124 146 116 Q140 114 138 120 Q144 138 158 138 ZM72 90 Q88 86 106 90 Q110 102 106 110 Q92 114 72 110 Q68 102 72 90 Z" /><glyph glyph-name="" unicode="&#x53d7;" d="M94 92 Q102 90 108 88 L144 88 Q150 90 156 92 Q162 92 168 90 Q180 78 174 74 Q158 60 152 50 Q210 28 248 32 Q252 22 232 6 Q216 -8 194 6 Q172 20 140 38 Q104 12 70 10 Q28 14 18 22 Q16 28 22 28 Q90 24 120 46 Q96 58 80 60 Q74 64 84 72 Q88 74 94 74 Q98 72 104 70 Q114 66 132 58 Q146 72 140 76 Q116 78 82 76 Q76 74 78 80 Q86 92 94 92 ZM116 134 Q122 136 130 132 Q134 126 136 118 Q138 114 130 114 Q122 116 114 124 Q110 132 116 134 ZM80 134 Q84 128 92 118 Q96 112 86 112 Q76 114 70 118 Q58 126 60 130 Q62 142 80 134 ZM174 164 Q180 168 188 158 Q194 152 188 148 Q178 146 170 144 Q150 140 130 138 Q96 134 68 140 Q56 142 50 148 Q48 154 54 154 Q76 152 102 152 Q126 154 150 158 Q162 160 174 164 ZM168 140 Q176 146 186 136 Q192 130 182 124 Q172 116 168 110 L192 108 Q206 108 208 112 Q214 114 218 112 Q230 106 226 94 Q222 80 220 66 Q214 58 208 68 Q206 80 206 92 Q204 96 198 96 Q166 98 136 100 Q110 100 86 100 Q78 100 66 98 Q52 96 46 88 Q42 78 40 68 Q36 56 30 66 Q28 76 26 86 Q26 100 30 108 Q34 116 44 114 Q48 112 54 110 Q80 110 108 112 Q142 112 156 110 Q162 128 168 140 Z" /><glyph glyph-name="" unicode="&#x53d8;" d="M122 162 Q136 160 138 144 Q156 144 210 142 Q230 142 222 130 L150 130 Q146 110 148 92 Q154 92 158 92 Q180 90 166 66 Q158 58 148 52 Q196 34 246 32 Q228 -4 210 4 Q176 14 132 42 Q102 26 72 16 Q32 6 14 24 Q8 32 22 32 Q70 32 114 52 Q104 58 94 60 Q86 60 88 68 Q92 76 100 74 Q110 70 128 60 Q138 66 146 74 Q146 80 130 82 Q104 82 78 76 Q70 72 70 80 Q76 98 90 94 L96 94 Q98 112 96 130 Q62 132 38 124 Q28 122 28 132 Q38 150 52 148 Q80 142 106 144 Q110 162 122 162 ZM128 128 Q120 132 114 128 Q112 112 114 94 Q122 92 130 94 Q134 112 128 128 ZM164 120 Q186 110 212 92 Q218 74 196 86 Q168 96 156 106 Q154 116 164 120 ZM72 122 Q86 126 88 114 Q86 108 78 102 Q68 96 56 92 Q44 88 34 86 Q24 88 28 96 Q52 108 72 122 Z" /><glyph glyph-name="" unicode="&#x53e3;" d="M210 122 Q216 118 212 112 Q210 104 210 94 Q208 76 206 58 Q204 44 200 30 Q198 24 186 26 Q182 26 178 30 Q168 34 156 34 Q98 36 76 24 Q66 20 62 26 Q58 36 56 44 Q52 88 46 110 Q44 116 46 122 Q52 132 62 134 Q76 130 90 130 Q110 130 132 130 Q156 128 178 128 Q182 128 188 132 Q194 136 210 122 ZM178 64 Q180 82 182 98 Q182 114 148 112 Q122 112 96 112 Q76 110 76 104 Q80 52 86 52 Q128 52 172 52 Q178 52 178 64 Z" /><glyph glyph-name="" unicode="&#x53e4;" d="M108 112 Q58 112 16 100 Q6 98 8 110 Q20 130 40 130 Q74 128 108 132 Q108 142 106 150 Q104 164 118 164 Q130 164 136 154 Q138 146 136 132 Q240 130 250 128 Q238 92 214 100 Q182 108 136 112 L136 88 Q170 84 182 88 Q188 90 196 84 Q206 74 202 66 Q200 52 198 40 Q196 20 188 10 Q180 4 164 10 Q124 20 76 10 Q60 4 56 20 Q54 44 46 66 Q44 76 50 82 Q60 90 66 88 Q80 84 108 88 L108 112 ZM76 52 Q76 32 82 34 Q170 32 170 38 Q178 64 170 66 Q130 72 84 66 Q76 64 76 52 Z" /><glyph glyph-name="" unicode="&#x53e8;" d="M120 128 Q114 128 116 136 Q124 152 140 154 Q148 154 162 148 Q176 146 192 144 Q204 138 224 138 Q238 136 240 120 Q242 108 238 100 Q232 92 228 82 Q218 60 206 36 Q190 16 172 14 Q146 14 132 24 Q126 30 128 30 Q128 34 138 32 Q152 32 162 36 Q176 40 190 62 Q202 78 210 108 Q210 118 198 122 L184 126 Q174 110 166 96 Q142 62 112 40 Q84 22 64 20 Q58 20 50 24 Q44 30 38 36 Q38 40 70 48 Q100 56 130 82 Q140 94 148 104 Q160 124 158 130 Q144 134 120 128 ZM44 76 Q36 72 32 72 Q28 76 24 94 Q20 108 18 122 Q14 132 22 140 Q24 142 28 144 Q38 140 46 136 Q66 136 76 134 Q80 136 84 138 Q90 138 96 136 Q104 128 100 118 Q98 110 96 102 Q92 90 90 78 Q86 74 80 74 Q74 76 70 78 Q52 78 44 76 ZM42 104 Q46 92 52 90 Q62 90 70 92 Q72 100 76 108 Q76 120 70 122 L48 122 Q38 122 42 104 Z" /><glyph glyph-name="" unicode="&#x53ea;" d="M80 116 Q82 92 88 92 Q126 94 164 92 Q170 92 170 98 Q172 108 174 122 Q176 132 154 134 Q124 136 96 134 Q80 132 80 116 ZM64 154 Q68 152 78 150 Q102 154 142 152 Q156 150 172 150 Q188 156 198 150 Q206 142 202 136 Q198 126 196 104 Q194 96 196 86 Q196 76 190 72 Q184 64 174 70 Q142 76 110 76 Q96 74 84 72 Q76 66 68 68 Q62 72 60 78 Q58 100 54 122 Q52 128 50 136 Q48 156 64 154 ZM100 66 Q112 66 106 56 Q84 32 56 16 Q38 6 26 10 Q18 12 10 18 Q6 24 10 28 Q26 32 44 38 Q70 46 100 66 ZM162 66 Q204 38 238 32 Q244 28 234 18 Q218 0 202 8 Q192 12 180 24 Q170 34 160 46 Q152 54 146 60 Q144 72 162 66 Z" /><glyph glyph-name="" unicode="&#x53ef;" d="M36 148 Q68 146 106 148 Q252 146 252 144 Q250 134 240 122 Q234 114 222 120 Q208 126 186 128 Q188 84 188 44 Q186 22 162 10 Q134 2 120 4 Q88 6 72 18 Q66 24 62 30 Q62 34 64 34 Q80 24 116 22 Q138 22 150 30 Q164 38 164 68 Q164 110 160 132 Q98 134 36 128 Q24 126 12 120 Q2 120 14 140 Q28 152 36 148 ZM60 114 Q64 114 68 114 Q72 112 78 110 Q96 108 124 108 Q136 114 142 110 Q148 104 144 92 Q142 76 140 60 Q140 56 134 56 Q132 56 130 56 Q124 60 114 60 Q82 60 66 54 Q56 54 54 62 Q52 78 50 94 L50 102 Q50 110 60 114 ZM114 98 Q100 98 88 98 Q74 98 72 90 Q70 72 78 72 Q92 72 108 72 Q118 72 120 78 Q120 98 114 98 Z" /><glyph glyph-name="" unicode="&#x53f0;" d="M124 160 Q130 162 138 158 Q146 150 142 144 Q138 140 128 134 Q118 128 106 122 Q98 118 90 114 Q88 110 120 104 Q132 102 146 104 Q164 106 176 120 Q164 128 164 134 Q166 142 174 142 Q186 138 210 124 Q230 112 244 100 Q250 90 234 90 Q222 92 188 112 Q182 102 172 96 Q154 88 138 88 Q116 90 94 94 Q84 96 72 98 Q62 98 40 92 Q28 88 22 96 Q18 110 28 114 Q34 116 42 116 Q54 116 68 122 Q78 128 90 136 Q106 150 124 160 ZM78 80 Q114 78 152 78 Q164 78 178 78 Q182 80 188 82 Q194 84 204 76 Q208 70 208 62 Q206 44 204 24 Q200 10 192 8 Q188 8 186 8 Q178 12 170 14 L90 14 Q80 14 74 10 Q64 2 58 20 Q54 38 52 64 Q52 72 56 78 Q62 84 78 80 ZM80 34 Q128 32 174 32 Q180 34 182 46 Q184 60 178 64 L88 64 Q76 60 76 48 Q76 38 80 34 Z" /><glyph glyph-name="" unicode="&#x53f3;" d="M30 132 Q38 134 54 130 Q82 132 112 132 Q114 148 116 156 Q120 162 128 160 Q134 160 144 148 Q146 140 142 132 Q198 128 252 128 Q246 116 240 108 Q228 96 214 100 Q174 114 136 114 Q126 96 112 78 Q120 76 146 76 Q176 78 186 80 Q212 82 206 58 Q202 34 200 14 Q198 4 188 4 Q180 4 170 10 Q140 14 118 10 Q110 6 100 6 Q90 6 90 16 Q92 48 86 60 Q72 48 48 40 Q22 36 12 46 Q4 54 10 56 Q18 58 34 62 Q62 70 82 82 Q102 100 108 116 Q70 116 44 110 Q32 106 14 102 Q2 102 8 114 Q16 126 30 132 ZM122 60 Q108 56 110 36 Q112 28 128 28 Q146 26 170 28 Q180 28 180 44 Q182 58 170 60 Q148 62 122 60 Z" /><glyph glyph-name="" unicode="&#x53f6;" d="M108 114 Q126 110 150 114 Q150 142 148 154 Q150 164 162 162 Q176 162 176 148 Q174 136 176 114 Q234 112 250 110 Q238 76 220 88 Q194 98 176 96 Q174 58 176 18 Q176 0 162 0 Q150 0 150 14 Q152 56 150 96 Q116 94 100 88 Q92 86 92 96 Q96 114 108 114 ZM40 130 Q54 128 66 130 Q90 136 86 116 Q84 96 86 74 Q86 54 64 64 Q54 66 38 64 Q16 54 16 76 Q18 96 14 120 Q16 138 40 130 ZM60 114 Q48 118 40 114 Q34 108 34 98 Q36 84 42 82 Q64 80 66 90 Q68 112 60 114 Z" /><glyph glyph-name="" unicode="&#x5408;" d="M118 162 Q126 166 132 156 Q136 150 130 142 Q226 100 252 104 Q236 68 214 78 Q172 100 120 132 Q96 116 82 106 Q64 96 48 88 Q40 84 30 82 Q20 80 10 90 Q4 96 8 100 Q16 100 24 102 Q34 104 48 110 Q62 116 74 124 Q84 130 92 138 Q100 146 108 154 Q112 158 118 162 ZM84 102 Q96 104 118 104 Q142 104 162 100 Q166 98 166 94 Q166 92 164 90 Q148 88 132 88 L78 88 Q76 88 74 92 Q74 96 76 98 Q80 100 84 102 ZM86 72 Q96 74 106 74 L126 74 Q142 72 158 70 Q164 74 170 76 Q176 76 180 74 Q182 72 184 70 Q188 60 188 54 Q186 40 184 28 Q180 14 170 8 Q166 6 162 8 Q156 12 150 14 L92 14 Q82 10 78 8 Q74 6 70 10 Q66 18 64 26 Q60 42 58 56 Q58 64 62 70 Q66 74 72 76 Q80 74 86 72 ZM158 56 Q150 58 134 60 Q108 60 88 58 Q84 56 82 52 Q80 44 84 34 Q90 30 100 30 Q126 28 152 30 Q158 30 160 38 Q162 50 158 56 Z" /><glyph glyph-name="" unicode="&#x5409;" d="M110 136 L110 152 Q114 160 122 162 Q140 162 142 148 L142 136 Q174 134 194 134 Q252 134 252 130 Q250 118 240 108 Q232 98 216 106 Q178 120 142 118 L142 100 L202 100 Q210 98 208 90 Q208 86 200 86 L102 86 Q64 86 50 80 Q40 76 42 90 Q48 104 60 104 Q76 98 110 100 L110 118 Q52 116 24 110 Q8 104 8 116 Q12 136 30 138 Q64 134 110 136 ZM84 68 Q126 66 166 68 Q178 68 186 72 Q202 72 200 54 Q194 36 196 24 Q194 4 182 6 Q176 8 172 10 Q126 12 84 10 Q76 8 72 8 Q60 4 60 20 Q58 42 54 56 Q50 74 66 74 Q72 70 84 68 ZM82 50 Q74 42 82 28 Q124 20 174 28 Q182 38 176 50 Q126 56 82 50 Z" /><glyph glyph-name="" unicode="&#x540c;" d="M62 156 Q72 150 84 150 Q110 150 138 152 Q160 150 182 148 Q194 148 202 154 Q210 152 216 148 Q220 144 222 140 Q220 136 218 112 Q220 44 224 30 Q226 22 216 12 Q210 8 204 8 Q200 10 196 16 L196 106 Q196 120 194 132 Q162 136 134 136 Q104 136 74 132 Q70 130 70 124 L70 78 Q70 66 62 42 Q54 26 44 20 Q38 16 26 16 Q4 22 6 34 Q8 36 20 40 Q48 50 50 86 Q50 112 46 134 Q44 144 48 150 Q52 156 62 156 ZM104 120 Q122 120 140 118 Q158 118 178 116 Q180 114 184 112 Q186 108 182 106 L124 106 Q102 104 94 102 Q84 100 86 112 Q90 118 104 120 ZM96 90 Q100 92 104 92 Q114 88 126 86 Q144 88 164 90 Q180 90 180 80 Q176 60 174 36 Q168 32 164 32 Q158 34 144 38 Q118 38 106 30 Q98 32 94 34 Q90 40 90 44 Q88 58 88 80 Q90 88 96 90 ZM110 70 Q108 60 114 52 Q118 50 124 50 L150 50 Q156 52 156 56 L156 68 Q152 74 130 74 Q120 74 110 70 Z" /><glyph glyph-name="" unicode="&#x540d;" d="M130 30 Q156 32 184 30 Q198 28 202 36 Q206 56 194 58 Q164 58 132 60 Q116 60 110 52 Q108 44 110 36 Q114 28 130 30 ZM90 70 Q30 48 14 60 Q8 66 16 70 Q38 74 54 78 Q102 90 142 108 Q172 120 162 126 Q158 134 132 134 Q120 130 112 128 L106 126 Q114 122 122 120 Q132 118 142 114 Q144 112 138 108 Q134 106 120 104 Q112 104 104 106 Q90 108 98 124 Q62 112 40 120 Q30 128 40 130 Q54 132 70 134 Q108 142 130 158 Q140 168 150 162 Q160 152 148 146 Q158 144 164 142 Q184 138 192 140 Q208 142 214 132 Q218 120 204 114 Q162 94 110 76 Q148 72 196 74 Q226 82 226 58 Q222 38 222 16 Q222 2 200 8 Q152 20 108 8 Q78 4 88 32 Q92 44 88 62 Q86 66 90 70 Z" /><glyph glyph-name="" unicode="&#x540e;" d="M78 132 Q80 122 80 112 Q180 108 240 110 Q250 110 240 92 Q230 80 224 82 Q206 86 188 92 Q158 98 134 98 L90 98 Q80 100 72 74 Q62 46 48 30 Q36 22 20 26 Q10 30 6 36 Q6 40 20 48 Q40 62 52 80 Q62 100 56 124 Q54 132 52 138 Q50 148 64 150 Q72 146 84 144 Q120 144 148 150 Q170 154 184 162 Q190 164 194 160 Q206 150 204 144 Q202 136 174 134 Q136 132 78 132 ZM94 82 Q104 80 114 78 Q150 76 180 76 Q192 80 200 74 Q206 70 206 60 Q204 44 202 28 Q202 20 200 14 Q194 6 188 8 Q176 14 158 16 Q132 16 106 14 Q96 6 92 10 Q88 14 86 30 Q84 48 82 64 Q80 80 94 82 ZM108 60 Q102 54 104 44 Q108 32 116 32 Q170 32 178 38 Q184 50 178 58 Q172 64 158 64 L128 64 Q114 64 108 60 Z" /><glyph glyph-name="" unicode="&#x5411;" d="M94 134 Q98 138 102 150 Q112 172 130 160 Q140 144 116 134 L190 134 Q222 146 222 114 L222 22 Q222 4 204 4 Q194 4 194 16 L194 106 Q196 114 186 116 Q132 120 74 114 Q68 112 66 106 Q70 66 58 34 Q38 -4 10 16 Q4 22 10 28 Q28 36 38 50 Q52 76 46 104 Q44 112 42 118 Q40 140 70 132 Q88 134 94 134 ZM86 80 Q86 102 112 94 Q130 90 146 94 Q176 104 172 80 Q170 64 170 44 Q168 24 144 36 Q130 40 112 36 Q88 24 88 42 Q90 62 86 80 ZM106 64 Q106 48 124 50 Q156 48 150 70 Q148 80 126 80 Q106 78 106 64 Z" /><glyph glyph-name="" unicode="&#x541b;" d="M94 110 Q56 110 24 100 Q16 98 16 106 Q18 112 22 116 Q30 122 36 122 Q60 118 98 122 Q102 134 96 136 Q74 136 60 132 Q52 130 52 138 Q58 148 66 150 Q74 150 80 148 Q92 146 110 148 Q142 148 170 146 Q178 152 186 150 Q200 144 200 134 Q198 130 196 120 Q242 118 250 118 Q250 112 240 100 Q232 90 218 98 Q210 104 194 106 Q192 96 194 90 Q194 84 188 80 Q180 76 174 80 Q160 86 106 80 Q90 54 78 44 Q70 38 58 32 Q28 20 12 32 Q6 40 6 44 Q6 48 28 48 Q48 50 64 58 Q76 66 86 82 Q72 80 58 76 Q48 74 54 86 Q62 96 70 96 Q78 94 90 94 L94 110 ZM112 94 Q144 96 170 96 Q176 100 172 108 Q156 112 116 110 L112 94 ZM174 122 Q176 130 168 132 Q156 136 124 134 Q118 130 120 122 Q152 120 174 122 ZM120 38 Q122 30 128 30 Q156 32 176 30 Q186 30 186 40 Q188 52 178 54 Q154 56 128 54 Q120 54 120 38 ZM112 72 Q116 70 124 66 Q144 70 160 68 Q170 68 182 66 Q192 72 204 66 Q212 60 210 52 Q208 36 206 22 Q202 8 192 12 Q184 14 176 16 Q156 18 124 16 Q116 14 110 10 Q102 8 100 18 Q102 40 98 58 Q98 64 100 66 Q104 74 112 72 Z" /><glyph glyph-name="" unicode="&#x5426;" d="M60 152 Q112 148 160 152 Q184 152 202 148 Q212 138 198 136 Q166 138 134 136 Q142 134 138 126 L130 116 Q136 114 138 108 L138 84 Q138 72 130 70 Q150 66 172 68 Q196 76 196 54 Q194 36 192 26 Q192 2 158 14 Q126 18 94 14 Q68 4 66 20 Q66 36 62 52 Q58 74 80 72 Q96 68 120 70 Q116 76 116 108 Q80 82 46 68 Q14 56 6 74 Q2 82 8 82 Q78 94 120 136 Q90 138 54 128 Q42 124 42 136 Q50 156 60 152 ZM154 122 Q212 90 248 84 Q228 52 206 70 Q174 96 144 114 Q142 124 154 122 ZM94 30 Q128 28 162 30 Q174 30 172 46 Q172 54 164 56 Q128 60 92 54 Q84 56 86 34 Q88 30 94 30 Z" /><glyph glyph-name="" unicode="&#x542c;" d="M110 148 Q118 146 128 146 Q162 150 180 160 Q184 166 196 156 Q206 144 198 142 Q188 136 128 134 Q122 132 122 106 Q130 108 138 110 Q158 112 190 112 Q232 110 250 110 Q248 102 240 92 Q230 82 222 86 Q200 96 182 98 Q184 50 184 12 Q180 2 166 2 Q162 2 160 6 L160 98 Q136 98 122 92 Q116 50 92 28 Q76 16 60 26 Q50 34 54 38 Q78 44 94 66 Q106 88 102 122 Q100 130 98 138 Q96 150 110 148 ZM26 136 Q36 130 44 130 L66 130 Q72 130 78 134 Q84 136 88 126 Q86 102 82 78 Q78 68 72 72 Q58 76 48 76 Q40 74 32 72 Q24 64 22 76 Q20 92 18 110 Q16 116 16 124 Q16 136 26 136 ZM44 118 Q38 114 38 104 Q36 84 58 88 Q70 92 66 110 Q64 120 44 118 Z" /><glyph glyph-name="" unicode="&#x5439;" d="M142 68 Q126 34 98 18 Q76 8 60 10 Q52 12 46 16 Q40 22 44 24 Q74 30 98 44 Q124 60 126 86 Q126 94 130 100 Q134 106 140 102 Q148 98 146 84 Q182 54 206 44 Q226 36 246 36 Q224 -6 198 12 Q166 40 142 68 ZM34 126 Q44 122 64 126 Q66 128 70 130 Q86 134 86 118 Q82 102 80 84 Q102 96 112 112 Q120 134 118 154 Q118 164 130 164 Q144 162 144 150 Q144 140 138 126 Q164 122 178 126 Q186 130 190 130 Q200 132 208 122 Q214 116 208 106 Q192 90 164 86 Q152 86 152 88 Q154 90 162 94 Q168 98 170 102 Q174 108 154 114 Q140 116 134 116 Q122 94 108 84 Q94 74 80 78 Q78 64 64 68 Q56 70 48 70 Q36 68 28 64 Q24 64 20 78 Q14 96 12 112 Q8 130 20 130 Q28 128 34 126 ZM34 98 Q32 80 52 84 Q62 84 64 90 L64 106 Q62 112 46 112 Q34 110 34 98 Z" /><glyph glyph-name="" unicode="&#x5468;" d="M138 138 Q148 136 144 124 Q168 122 188 124 Q192 132 188 136 Q160 138 138 138 ZM118 124 Q116 134 120 138 Q92 138 78 136 Q68 132 74 124 Q98 122 118 124 ZM144 96 Q170 94 188 96 Q194 102 190 110 Q170 114 144 110 Q140 104 144 96 ZM72 76 Q68 26 38 10 Q26 6 10 16 Q6 20 10 26 Q12 28 20 32 Q36 40 46 58 Q54 84 52 108 Q50 128 46 140 Q44 146 52 150 Q64 156 74 148 Q94 152 118 152 Q134 154 144 152 Q164 152 188 148 Q198 156 210 152 Q224 144 218 136 Q216 122 214 104 Q214 92 214 84 Q216 50 218 18 Q218 2 206 4 Q194 2 192 14 Q194 68 190 80 Q136 84 90 82 Q76 80 72 76 ZM76 94 Q98 96 116 96 Q118 102 116 110 Q92 112 76 108 Q70 104 76 94 ZM112 52 Q108 42 114 36 Q130 38 148 36 Q156 46 148 52 Q120 56 112 52 ZM98 70 Q104 68 110 66 Q130 68 150 66 Q160 70 170 66 Q178 62 176 54 Q174 50 174 46 Q174 36 174 28 Q174 18 166 20 Q156 22 146 24 Q130 26 116 24 Q106 22 98 20 Q90 18 90 28 Q88 42 88 56 Q88 72 98 70 Z" /><glyph glyph-name="" unicode="&#x548c;" d="M78 134 Q50 130 34 142 Q34 144 36 146 Q50 144 60 144 Q96 146 110 158 Q116 160 122 152 Q124 144 120 142 Q112 138 98 136 L98 116 Q110 114 120 116 Q126 114 126 106 Q122 102 116 102 L98 102 Q104 92 120 80 Q126 74 130 70 Q130 64 122 64 Q112 66 98 78 L98 16 Q96 6 82 6 Q76 8 76 20 L76 72 Q54 50 30 38 Q24 32 10 38 Q0 46 6 50 Q56 68 76 100 Q50 100 34 96 Q26 94 24 100 Q24 106 30 112 Q36 118 40 118 Q46 118 52 116 L78 116 L78 134 ZM140 128 Q146 132 154 126 Q180 124 202 124 Q208 126 214 128 Q220 130 224 128 Q232 122 232 114 Q230 106 230 98 Q228 80 226 60 Q222 46 214 48 Q208 52 202 56 Q178 58 162 54 Q152 48 148 48 Q142 50 140 56 Q138 68 136 82 Q134 98 132 114 Q134 124 140 128 ZM162 106 Q156 104 158 80 Q158 72 170 72 Q196 70 202 78 Q206 90 204 104 Q202 110 186 110 Q168 110 162 106 Z" /><glyph glyph-name="" unicode="&#x54b8;" d="M68 134 Q106 130 134 132 Q128 158 144 162 Q158 166 158 132 L168 132 Q208 134 214 124 Q216 118 212 116 Q190 118 160 116 Q162 92 172 74 Q178 86 182 104 Q184 110 190 108 Q200 104 198 90 Q196 80 184 60 Q202 34 250 24 Q222 -6 194 14 Q184 22 170 40 Q152 14 132 12 Q116 14 124 20 Q140 30 158 56 Q146 80 138 116 Q116 118 88 116 Q68 116 68 108 Q68 76 64 52 Q62 40 54 30 Q34 14 16 18 Q2 26 12 32 Q32 36 46 58 Q54 76 52 102 Q48 122 46 126 Q48 144 68 134 ZM118 64 L106 64 Q94 64 92 56 Q90 44 100 42 Q108 40 118 42 Q126 44 126 56 Q126 62 118 64 ZM96 100 Q110 100 126 102 Q140 104 140 96 Q140 88 132 88 Q98 90 82 86 Q70 84 74 94 Q78 100 86 102 Q92 102 96 100 ZM206 154 Q210 146 204 142 Q190 138 184 138 Q174 140 178 144 Q188 152 194 160 Q202 164 206 154 ZM122 74 Q142 78 142 64 Q140 58 140 48 Q140 38 136 32 Q128 24 122 30 Q108 32 96 30 Q78 22 78 36 Q80 48 76 64 Q76 78 94 74 Q110 72 122 74 Z" /><glyph glyph-name="" unicode="&#x54cd;" d="M154 162 Q174 154 144 130 Q180 128 214 132 Q230 136 228 116 Q224 68 230 24 Q232 6 218 4 Q206 2 204 14 Q206 58 204 106 Q202 114 192 114 Q146 118 126 114 Q118 114 118 108 Q124 28 92 12 Q80 6 68 10 Q62 14 60 20 Q60 24 76 30 Q100 44 100 78 Q100 98 96 122 Q94 134 108 134 Q114 132 120 130 L126 130 Q134 142 138 160 Q144 168 154 162 ZM28 128 Q36 124 46 122 Q62 120 78 124 Q92 124 90 112 Q86 92 84 68 Q82 60 76 60 Q68 62 64 64 Q54 68 44 64 Q38 60 34 58 Q26 56 24 66 Q20 92 16 114 Q16 128 28 128 ZM40 108 Q38 106 38 104 Q36 84 44 80 Q52 78 62 80 Q66 82 68 84 Q72 102 64 108 Q52 112 40 108 ZM146 78 Q144 62 152 62 Q160 60 170 62 Q172 62 174 64 Q180 82 166 84 Q150 86 146 78 ZM144 96 Q158 94 174 96 Q198 104 192 76 Q190 68 192 56 Q194 46 184 46 Q176 48 172 50 Q158 52 148 48 Q132 40 130 54 Q130 70 128 84 Q124 100 144 96 Z" /><glyph glyph-name="" unicode="&#x5520;" d="M144 130 Q144 120 140 118 L170 118 Q168 120 166 130 L144 130 ZM94 142 Q102 142 110 140 L122 142 L122 154 Q126 158 130 160 Q134 160 140 158 Q144 154 144 144 L166 144 L166 152 Q166 158 174 160 Q182 158 186 154 Q188 150 188 142 Q200 142 212 140 Q218 140 220 136 Q220 130 212 130 L188 130 Q188 122 184 118 Q194 116 214 116 Q218 116 224 118 Q230 118 234 114 Q240 108 240 92 Q238 82 236 76 Q232 70 226 70 Q222 72 224 78 Q224 90 220 102 Q204 106 190 106 L166 106 Q174 104 178 100 Q180 96 178 90 Q176 84 188 84 Q200 84 208 80 Q212 76 214 66 Q214 60 210 50 Q192 24 178 12 Q162 4 150 6 Q128 14 124 24 Q124 26 142 22 Q156 22 166 30 Q186 46 188 60 Q190 66 186 70 Q172 76 168 72 Q130 32 88 16 Q54 4 42 22 Q42 26 44 26 Q100 30 144 76 Q130 76 116 72 Q108 72 112 80 Q118 90 126 92 Q138 88 152 90 Q158 100 158 106 L140 106 Q120 104 102 102 Q98 98 96 74 Q96 70 92 70 Q86 72 84 84 L84 104 Q88 120 94 118 Q100 116 106 116 L124 118 Q122 122 122 130 Q106 130 92 128 Q88 130 88 134 Q90 140 94 142 ZM32 124 L60 124 Q64 126 68 128 Q72 128 76 124 Q82 118 80 112 Q74 96 72 74 Q70 72 66 72 Q60 74 56 74 L40 74 Q34 72 28 70 Q22 70 20 74 Q16 94 12 114 Q10 124 20 128 Q24 128 32 124 ZM50 112 Q36 112 34 108 Q30 98 36 92 Q42 88 50 90 Q58 92 58 106 Q56 110 50 112 Z" /><glyph glyph-name="" unicode="&#x5546;" d="M104 114 L142 114 Q146 126 146 134 Q134 136 96 134 Q104 124 104 114 ZM108 148 Q110 164 130 164 Q146 162 146 148 Q226 146 246 144 Q248 134 236 122 Q228 114 212 122 Q186 130 160 132 Q170 124 154 112 Q174 110 184 112 Q210 118 208 100 Q204 66 210 18 Q212 4 198 2 Q192 0 186 8 Q182 6 184 86 Q184 98 174 100 Q128 104 88 100 Q70 100 72 80 Q72 20 42 10 Q6 2 8 20 Q12 24 30 30 Q40 34 48 44 Q58 60 50 98 Q46 116 70 112 Q86 112 96 114 Q72 122 88 134 Q46 132 18 126 Q8 122 8 134 Q16 150 26 150 Q52 144 108 148 ZM100 94 Q106 100 112 96 Q120 88 114 82 Q104 74 82 68 Q72 64 76 74 Q90 82 100 94 ZM138 82 Q134 86 134 92 Q134 100 146 98 Q150 94 174 76 Q180 72 176 68 Q162 68 138 82 ZM150 66 Q168 68 166 56 Q164 48 164 30 Q162 16 142 24 L110 24 Q86 16 88 34 Q90 44 86 54 Q84 72 106 66 L150 66 ZM112 56 Q106 54 106 46 Q106 34 116 36 L140 36 Q148 34 146 48 Q146 56 112 56 Z" /></font>
</defs>
</svg>
